<mxfile host="drawio-plugin" modified="2023-12-14T02:45:03.525Z" agent="5.0 (Windows NT 6.2; Win64; x64) AppleWebKit/537.36 (KHTML, like Gecko) Chrome/104.0.5112.102 Safari/537.36" etag="BDPbWjHXzhr68qtxVGBE" version="20.5.3" type="embed" pages="5"><diagram id="Ozu6RGgGH4oleqvn3Dz2" name="spring启动流程"><mxGraphModel dx="629" dy="382" grid="1" gridSize="10" guides="1" tooltips="1" connect="1" arrows="1" fold="1" page="1" pageScale="1" pageWidth="827" pageHeight="1169" math="0" shadow="0"><root><mxCell id="0"/><mxCell id="1" parent="0"/><mxCell id="UhDPLzXvXexByjq5M5zp-1" style="edgeStyle=orthogonalEdgeStyle;rounded=0;orthogonalLoop=1;jettySize=auto;html=1;entryX=0.5;entryY=0;entryDx=0;entryDy=0;" parent="1" source="UhDPLzXvXexByjq5M5zp-4" target="UhDPLzXvXexByjq5M5zp-8" edge="1"><mxGeometry relative="1" as="geometry"/></mxCell><mxCell id="UhDPLzXvXexByjq5M5zp-2" style="edgeStyle=orthogonalEdgeStyle;rounded=0;orthogonalLoop=1;jettySize=auto;html=1;entryX=0;entryY=0.5;entryDx=0;entryDy=0;" parent="1" source="UhDPLzXvXexByjq5M5zp-4" target="UhDPLzXvXexByjq5M5zp-9" edge="1"><mxGeometry relative="1" as="geometry"/></mxCell><mxCell id="UhDPLzXvXexByjq5M5zp-3" style="edgeStyle=orthogonalEdgeStyle;rounded=0;orthogonalLoop=1;jettySize=auto;html=1;entryX=-0.002;entryY=0.643;entryDx=0;entryDy=0;entryPerimeter=0;" parent="1" source="UhDPLzXvXexByjq5M5zp-4" target="UhDPLzXvXexByjq5M5zp-10" edge="1"><mxGeometry relative="1" as="geometry"/></mxCell><mxCell id="UhDPLzXvXexByjq5M5zp-4" value="new SpringApplication()" style="rounded=0;whiteSpace=wrap;html=1;fillColor=#dae8fc;strokeColor=#6c8ebf;" parent="1" vertex="1"><mxGeometry x="10" y="170" width="160" height="50" as="geometry"/></mxCell><mxCell id="UhDPLzXvXexByjq5M5zp-5" style="edgeStyle=orthogonalEdgeStyle;rounded=0;orthogonalLoop=1;jettySize=auto;html=1;entryX=0;entryY=0.5;entryDx=0;entryDy=0;" parent="1" source="UhDPLzXvXexByjq5M5zp-8" target="UhDPLzXvXexByjq5M5zp-11" edge="1"><mxGeometry relative="1" as="geometry"/></mxCell><mxCell id="UhDPLzXvXexByjq5M5zp-6" style="edgeStyle=orthogonalEdgeStyle;rounded=0;orthogonalLoop=1;jettySize=auto;html=1;entryX=0;entryY=0.5;entryDx=0;entryDy=0;" parent="1" source="UhDPLzXvXexByjq5M5zp-8" target="UhDPLzXvXexByjq5M5zp-12" edge="1"><mxGeometry relative="1" as="geometry"/></mxCell><mxCell id="UhDPLzXvXexByjq5M5zp-7" style="edgeStyle=orthogonalEdgeStyle;rounded=0;orthogonalLoop=1;jettySize=auto;html=1;entryX=0;entryY=0.5;entryDx=0;entryDy=0;" parent="1" source="UhDPLzXvXexByjq5M5zp-8" target="UhDPLzXvXexByjq5M5zp-16" edge="1"><mxGeometry relative="1" as="geometry"/></mxCell><mxCell id="UhDPLzXvXexByjq5M5zp-8" value="SpringApplication.run()" style="rounded=0;whiteSpace=wrap;html=1;fillColor=#dae8fc;strokeColor=#6c8ebf;" parent="1" vertex="1"><mxGeometry x="10" y="440" width="160" height="60" as="geometry"/></mxCell><mxCell id="UhDPLzXvXexByjq5M5zp-9" value="&lt;div&gt;// 设置初始化器:&amp;nbsp;&lt;/div&gt;&lt;div&gt;获取到SpringFactories中的键值对,通过ApplicationContextInitializer.class获取到其对应的自动装配类,并实例化,最后设置&lt;span style=&quot;background-color: initial;&quot;&gt;setInitializers((Collection) getSpringFactoriesInstances(ApplicationContextInitializer.class));&lt;/span&gt;&lt;/div&gt;" style="rounded=1;whiteSpace=wrap;html=1;fillColor=#dae8fc;strokeColor=#6c8ebf;align=left;" parent="1" vertex="1"><mxGeometry x="249" y="110" width="570" height="70" as="geometry"/></mxCell><mxCell id="UhDPLzXvXexByjq5M5zp-10" value="&lt;div&gt;// 设置监听器:&amp;nbsp;&lt;/div&gt;&lt;div&gt;获取到SpringFactories中的键对,ApplicationListener.class获取到自动装配类,并实例化,最后设置&lt;span style=&quot;background-color: initial;&quot;&gt;setListeners((Collection) getSpringFactoriesInstances(ApplicationListener.class));&lt;/span&gt;&lt;/div&gt;" style="rounded=1;whiteSpace=wrap;html=1;fillColor=#dae8fc;strokeColor=#6c8ebf;align=left;" parent="1" vertex="1"><mxGeometry x="250" y="220" width="510" height="70" as="geometry"/></mxCell><mxCell id="UhDPLzXvXexByjq5M5zp-11" value="&lt;pre style=&quot;background-color: rgb(199, 237, 204); font-family: Consolas; font-size: 9pt;&quot;&gt;SpringApplicationRunListeners启动&lt;/pre&gt;" style="whiteSpace=wrap;html=1;fillColor=#dae8fc;strokeColor=#6c8ebf;rounded=0;" parent="1" vertex="1"><mxGeometry x="249" y="350" width="250" height="60" as="geometry"/></mxCell><mxCell id="UhDPLzXvXexByjq5M5zp-12" value="&lt;span style=&quot;color: rgb(25, 25, 25); font-family: &amp;quot;Microsoft YaHei&amp;quot;; font-size: 10.6667px;&quot;&gt;Environment准备:&amp;nbsp; &amp;nbsp; &amp;nbsp;&amp;nbsp;&lt;/span&gt;&lt;font face=&quot;Microsoft YaHei&quot; color=&quot;#191919&quot;&gt;&lt;span style=&quot;font-size: 10.6667px;&quot;&gt;org.springframework.boot.SpringApplication#prepareEnvironment&amp;nbsp; &amp;nbsp;(应用从配置中心获取配置项)&lt;/span&gt;&lt;/font&gt;" style="rounded=1;whiteSpace=wrap;html=1;fillColor=#dae8fc;strokeColor=#6c8ebf;align=left;" parent="1" vertex="1"><mxGeometry x="249" y="440" width="470" height="60" as="geometry"/></mxCell><mxCell id="UhDPLzXvXexByjq5M5zp-13" style="edgeStyle=orthogonalEdgeStyle;rounded=0;orthogonalLoop=1;jettySize=auto;html=1;entryX=0;entryY=0.75;entryDx=0;entryDy=0;" parent="1" source="UhDPLzXvXexByjq5M5zp-16" target="UhDPLzXvXexByjq5M5zp-18" edge="1"><mxGeometry relative="1" as="geometry"/></mxCell><mxCell id="UhDPLzXvXexByjq5M5zp-14" style="edgeStyle=orthogonalEdgeStyle;rounded=0;orthogonalLoop=1;jettySize=auto;html=1;entryX=0;entryY=0.5;entryDx=0;entryDy=0;" parent="1" source="UhDPLzXvXexByjq5M5zp-16" target="UhDPLzXvXexByjq5M5zp-20" edge="1"><mxGeometry relative="1" as="geometry"/></mxCell><mxCell id="UhDPLzXvXexByjq5M5zp-15" style="edgeStyle=orthogonalEdgeStyle;rounded=0;orthogonalLoop=1;jettySize=auto;html=1;entryX=0;entryY=0.5;entryDx=0;entryDy=0;" parent="1" source="UhDPLzXvXexByjq5M5zp-16" target="UhDPLzXvXexByjq5M5zp-21" edge="1"><mxGeometry relative="1" as="geometry"/></mxCell><mxCell id="UhDPLzXvXexByjq5M5zp-16" value="&lt;div&gt;&lt;span style=&quot;background-color: initial;&quot;&gt;创建ApplicationContext&lt;/span&gt;&lt;br&gt;&lt;/div&gt;" style="rounded=1;whiteSpace=wrap;html=1;fillColor=#dae8fc;strokeColor=#6c8ebf;" parent="1" vertex="1"><mxGeometry x="250" y="670" width="160" height="50" as="geometry"/></mxCell><mxCell id="UhDPLzXvXexByjq5M5zp-17" value="" style="edgeStyle=orthogonalEdgeStyle;rounded=0;orthogonalLoop=1;jettySize=auto;html=1;" parent="1" source="UhDPLzXvXexByjq5M5zp-18" target="UhDPLzXvXexByjq5M5zp-23" edge="1"><mxGeometry relative="1" as="geometry"/></mxCell><mxCell id="UhDPLzXvXexByjq5M5zp-18" value="&lt;pre style=&quot;background-color: rgb(199, 237, 204);&quot;&gt;&lt;div style=&quot;text-align: left;&quot;&gt;&lt;span style=&quot;font-family: Consolas; white-space: normal;&quot;&gt;prepareContext(context, environment, listeners,&amp;nbsp;&lt;/span&gt;&lt;/div&gt;&lt;font face=&quot;Consolas&quot;&gt;&lt;div style=&quot;text-align: left;&quot;&gt;&lt;span style=&quot;white-space: normal;&quot;&gt;applicationArguments, printedBanner)&lt;/span&gt;&lt;/div&gt;&lt;/font&gt;&lt;/pre&gt;" style="rounded=1;whiteSpace=wrap;html=1;fillColor=#dae8fc;strokeColor=#6c8ebf;" parent="1" vertex="1"><mxGeometry x="460" y="557.5" width="330" height="55" as="geometry"/></mxCell><mxCell id="UhDPLzXvXexByjq5M5zp-19" value="" style="edgeStyle=orthogonalEdgeStyle;rounded=0;orthogonalLoop=1;jettySize=auto;html=1;" parent="1" source="UhDPLzXvXexByjq5M5zp-20" target="UhDPLzXvXexByjq5M5zp-25" edge="1"><mxGeometry relative="1" as="geometry"/></mxCell><mxCell id="UhDPLzXvXexByjq5M5zp-20" value="&lt;pre style=&quot;background-color: rgb(199, 237, 204); font-family: Consolas; font-size: 9pt;&quot;&gt;&lt;pre style=&quot;font-family: Consolas; font-size: 9pt;&quot;&gt;refreshContext(context)&lt;/pre&gt;&lt;/pre&gt;" style="rounded=1;whiteSpace=wrap;html=1;fillColor=#dae8fc;strokeColor=#6c8ebf;" parent="1" vertex="1"><mxGeometry x="460" y="760" width="170" height="50" as="geometry"/></mxCell><mxCell id="UhDPLzXvXexByjq5M5zp-21" value="&lt;pre style=&quot;border-color: var(--border-color); font-size: 9pt; font-family: Consolas;&quot;&gt;afterRefresh(context, &lt;/pre&gt;&lt;pre style=&quot;border-color: var(--border-color); font-size: 9pt; font-family: Consolas;&quot;&gt;applicationArguments)&lt;/pre&gt;" style="rounded=1;whiteSpace=wrap;html=1;fillColor=#dae8fc;strokeColor=#6c8ebf;" parent="1" vertex="1"><mxGeometry x="460" y="960" width="170" height="60" as="geometry"/></mxCell><mxCell id="UhDPLzXvXexByjq5M5zp-22" value="" style="edgeStyle=orthogonalEdgeStyle;rounded=0;orthogonalLoop=1;jettySize=auto;html=1;" parent="1" source="UhDPLzXvXexByjq5M5zp-23" target="UhDPLzXvXexByjq5M5zp-24" edge="1"><mxGeometry relative="1" as="geometry"/></mxCell><mxCell id="UhDPLzXvXexByjq5M5zp-23" value="&lt;pre style=&quot;background-color: rgb(199, 237, 204); font-family: Consolas; font-size: 9pt;&quot;&gt; load(ApplicationContext context, Object[] sources):sources就是启动类&lt;/pre&gt;" style="whiteSpace=wrap;html=1;fillColor=#dae8fc;strokeColor=#6c8ebf;rounded=1;align=left;" parent="1" vertex="1"><mxGeometry x="840" y="557" width="460" height="55" as="geometry"/></mxCell><mxCell id="UhDPLzXvXexByjq5M5zp-24" value="&lt;pre style=&quot;background-color: rgb(199, 237, 204); font-family: Consolas; font-size: 9pt;&quot;&gt;BeanDefinitionLoader.load(Object source):组装成主类的类定义&lt;/pre&gt;" style="whiteSpace=wrap;html=1;fillColor=#dae8fc;strokeColor=#6c8ebf;rounded=1;align=left;" parent="1" vertex="1"><mxGeometry x="1360" y="555" width="389" height="60" as="geometry"/></mxCell><mxCell id="UhDPLzXvXexByjq5M5zp-25" value="1. 预刷新;&lt;br&gt;2.获取beanFactory;&lt;br&gt;3.beanFactory设置;&lt;br&gt;4.beanFactory后置处理器&lt;br&gt;5.执行beanFactory后置处理器(对bean定义增强);&lt;br&gt;6.注册beanF后置处理器;&lt;br&gt;" style="whiteSpace=wrap;html=1;fillColor=#dae8fc;strokeColor=#6c8ebf;rounded=1;align=left;" parent="1" vertex="1"><mxGeometry x="700" y="723.13" width="225" height="123.75" as="geometry"/></mxCell></root></mxGraphModel></diagram><diagram id="2LyY_iWHfQuCS7xmX6Rh" name="spring"><mxGraphModel dx="629" dy="382" grid="1" gridSize="10" guides="1" tooltips="1" connect="1" arrows="1" fold="1" page="1" pageScale="1" pageWidth="827" pageHeight="1169" math="0" shadow="0"><root><mxCell id="0"/><mxCell id="1" parent="0"/><mxCell id="4fg3kK6eOyFRR7SpZR4q-1" value="" style="edgeStyle=orthogonalEdgeStyle;rounded=0;orthogonalLoop=1;jettySize=auto;html=1;" parent="1" source="4fg3kK6eOyFRR7SpZR4q-3" target="4fg3kK6eOyFRR7SpZR4q-5" edge="1"><mxGeometry relative="1" as="geometry"/></mxCell><mxCell id="4fg3kK6eOyFRR7SpZR4q-2" value="" style="edgeStyle=orthogonalEdgeStyle;rounded=0;orthogonalLoop=1;jettySize=auto;html=1;" parent="1" source="4fg3kK6eOyFRR7SpZR4q-3" target="4fg3kK6eOyFRR7SpZR4q-18" edge="1"><mxGeometry relative="1" as="geometry"/></mxCell><mxCell id="4fg3kK6eOyFRR7SpZR4q-3" value="&lt;span style=&quot;font-family:'Microsoft YaHei'; font-size:8pt; color:#191919;&quot;&gt;ApplicationContext&lt;br&gt;&amp;nbsp;应用上下文(spring容器)&lt;/span&gt;" style="rounded=1;whiteSpace=wrap;html=1;fillColor=#f5f5f5;strokeColor=#666666;gradientColor=#b3b3b3;" parent="1" vertex="1"><mxGeometry x="610" y="30" width="120" height="50" as="geometry"/></mxCell><mxCell id="4fg3kK6eOyFRR7SpZR4q-4" value="" style="edgeStyle=orthogonalEdgeStyle;rounded=0;orthogonalLoop=1;jettySize=auto;html=1;" parent="1" source="4fg3kK6eOyFRR7SpZR4q-5" target="4fg3kK6eOyFRR7SpZR4q-7" edge="1"><mxGeometry relative="1" as="geometry"/></mxCell><mxCell id="4fg3kK6eOyFRR7SpZR4q-5" value="&lt;span style=&quot;font-family:'Microsoft YaHei'; font-size:8pt; color:#191919;&quot;&gt;&lt;b&gt;BeanFactory&lt;/b&gt;: &lt;br&gt;Bean容器,负责管理&lt;/span&gt;&lt;span style=&quot;color: rgb(25, 25, 25); font-family: &amp;quot;Microsoft YaHei&amp;quot;; font-size: 10.6667px;&quot;&gt;Bean&lt;/span&gt;" style="rounded=1;whiteSpace=wrap;html=1;fillColor=#f5f5f5;strokeColor=#666666;gradientColor=#b3b3b3;" parent="1" vertex="1"><mxGeometry x="610" y="110" width="120" height="50" as="geometry"/></mxCell><mxCell id="4fg3kK6eOyFRR7SpZR4q-6" value="" style="edgeStyle=orthogonalEdgeStyle;rounded=0;orthogonalLoop=1;jettySize=auto;html=1;" parent="1" source="4fg3kK6eOyFRR7SpZR4q-7" target="4fg3kK6eOyFRR7SpZR4q-9" edge="1"><mxGeometry relative="1" as="geometry"/></mxCell><mxCell id="4fg3kK6eOyFRR7SpZR4q-7" value="&lt;font face=&quot;Microsoft YaHei&quot; color=&quot;#191919&quot;&gt;&lt;span style=&quot;font-size: 8pt;&quot;&gt;BeanDefinitionReader&lt;/span&gt;&lt;/font&gt;&lt;br&gt;&lt;font face=&quot;Microsoft YaHei&quot; color=&quot;#191919&quot;&gt;&lt;span style=&quot;font-size: 8pt;&quot;&gt;[&lt;/span&gt;&lt;span style=&quot;font-size: 10.6667px;&quot;&gt;XmlBeanDefinitionReader]&lt;/span&gt;&lt;/font&gt;" style="rounded=1;whiteSpace=wrap;html=1;fillColor=#f5f5f5;strokeColor=#666666;gradientColor=#b3b3b3;" parent="1" vertex="1"><mxGeometry x="585" y="200" width="170" height="50" as="geometry"/></mxCell><mxCell id="4fg3kK6eOyFRR7SpZR4q-8" value="" style="edgeStyle=orthogonalEdgeStyle;rounded=0;orthogonalLoop=1;jettySize=auto;html=1;" parent="1" source="4fg3kK6eOyFRR7SpZR4q-9" target="4fg3kK6eOyFRR7SpZR4q-11" edge="1"><mxGeometry relative="1" as="geometry"/></mxCell><mxCell id="4fg3kK6eOyFRR7SpZR4q-9" value="&lt;span style=&quot;color: rgb(25, 25, 25); font-family: &amp;quot;Microsoft YaHei&amp;quot;; font-size: 10.6667px;&quot;&gt;BeanDefinitionRegistry&lt;br&gt;保存beanName与&lt;b&gt;BeanDefinition&lt;/b&gt;映射的容器(beanName, beanDefinition),比如(springMpApplication,AnnotatedGenericBeanDefinition)&lt;/span&gt;&lt;span style=&quot;font-family:'Microsoft YaHei'; font-size:8pt; color:#191919;&quot;&gt;BeanDefinition:Bean的元数据&lt;/span&gt;" style="rounded=1;whiteSpace=wrap;html=1;fillColor=#f5f5f5;strokeColor=#666666;gradientColor=#b3b3b3;" parent="1" vertex="1"><mxGeometry x="470" y="285" width="400" height="65" as="geometry"/></mxCell><mxCell id="4fg3kK6eOyFRR7SpZR4q-10" value="" style="edgeStyle=orthogonalEdgeStyle;rounded=0;orthogonalLoop=1;jettySize=auto;html=1;" parent="1" source="4fg3kK6eOyFRR7SpZR4q-11" target="4fg3kK6eOyFRR7SpZR4q-14" edge="1"><mxGeometry relative="1" as="geometry"/></mxCell><mxCell id="4fg3kK6eOyFRR7SpZR4q-11" value="&lt;span style=&quot;font-family:'Microsoft YaHei'; font-size:8pt; color:#191919;&quot;&gt;ResourceLoader:&lt;br&gt;&amp;nbsp;资源加载器&lt;/span&gt;" style="whiteSpace=wrap;html=1;rounded=1;fillColor=#f5f5f5;strokeColor=#666666;gradientColor=#b3b3b3;" parent="1" vertex="1"><mxGeometry x="610" y="390" width="120" height="60" as="geometry"/></mxCell><mxCell id="4fg3kK6eOyFRR7SpZR4q-12" value="" style="edgeStyle=orthogonalEdgeStyle;rounded=0;orthogonalLoop=1;jettySize=auto;html=1;" parent="1" source="4fg3kK6eOyFRR7SpZR4q-14" target="4fg3kK6eOyFRR7SpZR4q-49" edge="1"><mxGeometry relative="1" as="geometry"/></mxCell><mxCell id="4fg3kK6eOyFRR7SpZR4q-13" style="edgeStyle=orthogonalEdgeStyle;rounded=0;orthogonalLoop=1;jettySize=auto;html=1;entryX=0;entryY=0.5;entryDx=0;entryDy=0;" parent="1" source="4fg3kK6eOyFRR7SpZR4q-14" target="4fg3kK6eOyFRR7SpZR4q-32" edge="1"><mxGeometry relative="1" as="geometry"/></mxCell><mxCell id="4fg3kK6eOyFRR7SpZR4q-14" value="&lt;span style=&quot;font-family:'Microsoft YaHei'; font-size:8pt; color:#191919;&quot;&gt;&lt;b&gt;Resource&lt;/b&gt;: 资源抽象类&lt;br&gt;(&lt;/span&gt;&lt;span style=&quot;background-color: initial; font-size: 10.6667px;&quot;&gt;&lt;font face=&quot;Microsoft YaHei&quot; color=&quot;#191919&quot;&gt;Interface for a resource descriptor that abstracts from the actual&amp;nbsp;&lt;/font&gt;&lt;/span&gt;&lt;font style=&quot;background-color: initial;&quot; face=&quot;Microsoft YaHei&quot; color=&quot;#191919&quot;&gt;&lt;span style=&quot;font-size: 10.6667px;&quot;&gt;type of underlying resource, such as a file or class path resource)&lt;/span&gt;&lt;/font&gt;&lt;span style=&quot;background-color: initial; font-size: 10.6667px;&quot;&gt;&lt;font face=&quot;Microsoft YaHei&quot; color=&quot;#191919&quot;&gt;[a URL or File handle]&lt;/font&gt;&lt;/span&gt;&lt;div&gt;&lt;font face=&quot;Microsoft YaHei&quot; color=&quot;#191919&quot;&gt;&lt;span style=&quot;font-size: 10.6667px;&quot;&gt;[ClassPathResource/FileUrlResource/UrlResource]&lt;/span&gt;&lt;/font&gt;&lt;/div&gt;&lt;div&gt;&lt;br&gt;&lt;/div&gt;" style="whiteSpace=wrap;html=1;rounded=1;fillColor=#f5f5f5;strokeColor=#666666;gradientColor=#b3b3b3;" parent="1" vertex="1"><mxGeometry x="511.25" y="490" width="317.5" height="90" as="geometry"/></mxCell><mxCell id="4fg3kK6eOyFRR7SpZR4q-15" style="edgeStyle=orthogonalEdgeStyle;rounded=0;orthogonalLoop=1;jettySize=auto;html=1;entryX=0.627;entryY=-0.017;entryDx=0;entryDy=0;entryPerimeter=0;" parent="1" source="4fg3kK6eOyFRR7SpZR4q-18" target="4fg3kK6eOyFRR7SpZR4q-19" edge="1"><mxGeometry relative="1" as="geometry"/></mxCell><mxCell id="4fg3kK6eOyFRR7SpZR4q-16" style="edgeStyle=orthogonalEdgeStyle;rounded=0;orthogonalLoop=1;jettySize=auto;html=1;entryX=0.5;entryY=0;entryDx=0;entryDy=0;" parent="1" source="4fg3kK6eOyFRR7SpZR4q-18" target="4fg3kK6eOyFRR7SpZR4q-57" edge="1"><mxGeometry relative="1" as="geometry"/></mxCell><mxCell id="4fg3kK6eOyFRR7SpZR4q-17" value="Text" style="edgeLabel;html=1;align=center;verticalAlign=middle;resizable=0;points=[];" parent="4fg3kK6eOyFRR7SpZR4q-16" vertex="1" connectable="0"><mxGeometry x="-0.1615" relative="1" as="geometry"><mxPoint as="offset"/></mxGeometry></mxCell><mxCell id="4fg3kK6eOyFRR7SpZR4q-18" value="&lt;span style=&quot;font-family:'Microsoft YaHei'; font-size:8pt; color:#191919;&quot;&gt;Environment&lt;br&gt;应用运行在那个环境,test,dev(环境变量)&lt;/span&gt;" style="whiteSpace=wrap;html=1;rounded=1;fillColor=#f5f5f5;gradientColor=#b3b3b3;strokeColor=#666666;" parent="1" vertex="1"><mxGeometry x="170" y="90" width="120" height="60" as="geometry"/></mxCell><mxCell id="4fg3kK6eOyFRR7SpZR4q-19" value="&lt;span style=&quot;font-family:'Microsoft YaHei'; font-size:8pt; color:#191919;&quot;&gt;Profiles[spring的XML配置文件]&lt;br&gt;&lt;/span&gt;&lt;font face=&quot;Microsoft YaHei&quot; color=&quot;#191919&quot;&gt;&lt;span style=&quot;font-size: 10.6667px;&quot;&gt;Profiles are used for creating logical groupings of bean definitions to be registered conditionally&lt;/span&gt;&lt;/font&gt;" style="rounded=1;whiteSpace=wrap;html=1;fillColor=#f5f5f5;gradientColor=#b3b3b3;strokeColor=#666666;" parent="1" vertex="1"><mxGeometry x="250" y="190" width="200" height="80" as="geometry"/></mxCell><mxCell id="00wqPqCUeFf2qTp-KDv7-2" style="edgeStyle=orthogonalEdgeStyle;rounded=0;orthogonalLoop=1;jettySize=auto;html=1;entryX=0.5;entryY=1;entryDx=0;entryDy=0;" parent="1" source="4fg3kK6eOyFRR7SpZR4q-20" target="4fg3kK6eOyFRR7SpZR4q-22" edge="1"><mxGeometry relative="1" as="geometry"/></mxCell><mxCell id="4fg3kK6eOyFRR7SpZR4q-20" value="&lt;p style=&quot;margin: 0px; line-height: 100%;&quot; align=&quot;center&quot;&gt;&lt;span style=&quot;font-family:'Microsoft YaHei'; font-size:8pt; color:#191919;&quot;&gt;BeanFactoryPostProcessor: BeanFactory后置处理器(A{@code BeanFactoryPostProcessor} may interact with and modify bean&lt;/span&gt;&lt;/p&gt;&lt;p style=&quot;margin: 0px; line-height: 100%;&quot; align=&quot;center&quot;&gt;&lt;span style=&quot;font-family:'Microsoft YaHei'; font-size:8pt; color:#191919;&quot;&gt;&amp;nbsp;definitions)&lt;/span&gt;&lt;/p&gt;" style="rounded=1;whiteSpace=wrap;html=1;fillColor=#f5f5f5;gradientColor=#b3b3b3;strokeColor=#666666;" parent="1" vertex="1"><mxGeometry x="1329.5" y="150" width="190" height="75" as="geometry"/></mxCell><mxCell id="4fg3kK6eOyFRR7SpZR4q-22" value="&lt;font face=&quot;Microsoft YaHei&quot; color=&quot;#191919&quot;&gt;&lt;span style=&quot;font-size: 8pt;&quot;&gt;BeanPostProcessor: &lt;/span&gt;&lt;/font&gt;&lt;br&gt;&lt;font face=&quot;Microsoft YaHei&quot; color=&quot;#191919&quot;&gt;&lt;span style=&quot;font-size: 8pt;&quot;&gt;Bean对象后置处理器(对bean增强) ,实例化bean后,初始化前和后对bean做修改,比如标记接口,代理;&lt;/span&gt;&lt;/font&gt;&lt;br&gt;&lt;div style=&quot;&quot;&gt;&lt;font face=&quot;Microsoft YaHei&quot; color=&quot;#191919&quot;&gt;&lt;span style=&quot;font-size: 10.6667px;&quot;&gt;[InstantiationAwareBeanPostProcessor]&lt;/span&gt;&lt;/font&gt;&lt;/div&gt;&lt;div style=&quot;&quot;&gt;&lt;font face=&quot;Microsoft YaHei&quot; color=&quot;#191919&quot;&gt;&lt;span style=&quot;font-size: 10.6667px;&quot;&gt;[DestructionAwareBeanPostProcessor]&lt;/span&gt;&lt;/font&gt;&lt;/div&gt;" style="rounded=1;whiteSpace=wrap;html=1;fillColor=#f5f5f5;gradientColor=#b3b3b3;strokeColor=#666666;" parent="1" vertex="1"><mxGeometry x="1299.5" y="10" width="250" height="90" as="geometry"/></mxCell><mxCell id="4fg3kK6eOyFRR7SpZR4q-23" value="&lt;p style=&quot;margin: 0px; line-height: 100%;&quot; align=&quot;center&quot;&gt;&lt;span style=&quot;font-family:'Microsoft YaHei'; font-size:8pt; color:#191919;&quot;&gt;Configurable: 可配置的;&lt;/span&gt;&lt;/p&gt;&lt;br&gt;&lt;p style=&quot;margin: 0px; line-height: 100%;&quot; align=&quot;center&quot;&gt;&lt;span style=&quot;font-family:'Microsoft YaHei'; font-size:8pt; color:#191919;&quot;&gt;Registry: 注册中心/表, 本质就是java容器&lt;/span&gt;&lt;/p&gt;" style="rounded=1;whiteSpace=wrap;html=1;fillColor=#f5f5f5;strokeColor=#666666;gradientColor=#b3b3b3;" parent="1" vertex="1"><mxGeometry x="1680" y="402" width="220" height="48" as="geometry"/></mxCell><mxCell id="4fg3kK6eOyFRR7SpZR4q-24" value="&lt;span style=&quot;font-family:'Microsoft YaHei'; font-size:8pt; color:#191919;&quot;&gt;AnnotationConfigApplicationContext: 基于注解,配置的应用上下文&lt;/span&gt;" style="rounded=1;whiteSpace=wrap;html=1;fillColor=#f5f5f5;strokeColor=#666666;gradientColor=#b3b3b3;" parent="1" vertex="1"><mxGeometry x="1680" y="10" width="334" height="40" as="geometry"/></mxCell><mxCell id="4fg3kK6eOyFRR7SpZR4q-25" value="&lt;span style=&quot;font-family:'Microsoft YaHei'; font-size:8pt; color:#191919;&quot;&gt;AutowiredAnnotationBeanPostProcessor&lt;/span&gt;" style="rounded=1;whiteSpace=wrap;html=1;fillColor=#f5f5f5;gradientColor=#b3b3b3;strokeColor=#666666;" parent="1" vertex="1"><mxGeometry x="1680" y="120" width="220" height="40" as="geometry"/></mxCell><mxCell id="4fg3kK6eOyFRR7SpZR4q-26" value="&lt;span style=&quot;font-family:'Microsoft YaHei'; font-size:8pt; color:#191919;&quot;&gt;ApplicationEvent - ApplicationListener:  事件与监听是一对,多对多的关系,事件发布和事件监听,&lt;/span&gt;" style="rounded=1;whiteSpace=wrap;html=1;fillColor=#f5f5f5;gradientColor=#b3b3b3;strokeColor=#666666;" parent="1" vertex="1"><mxGeometry x="1680" y="190" width="270" height="40" as="geometry"/></mxCell><mxCell id="4fg3kK6eOyFRR7SpZR4q-27" value="&lt;span style=&quot;font-family:'Microsoft YaHei'; font-size:8pt; color:#191919;&quot;&gt;ApplicationEventMulticaster: 应用事件广播&lt;/span&gt;" style="rounded=1;whiteSpace=wrap;html=1;fillColor=#f5f5f5;gradientColor=#b3b3b3;strokeColor=#666666;" parent="1" vertex="1"><mxGeometry x="1680" y="260" width="250" height="40" as="geometry"/></mxCell><mxCell id="4fg3kK6eOyFRR7SpZR4q-28" value="&lt;span style=&quot;font-family:'Microsoft YaHei'; font-size:8pt; color:#191919;&quot;&gt;StandardServletEnvironment&lt;/span&gt;" style="rounded=1;whiteSpace=wrap;html=1;fillColor=#f5f5f5;strokeColor=#666666;gradientColor=#b3b3b3;" parent="1" vertex="1"><mxGeometry x="1680" y="330" width="200" height="40" as="geometry"/></mxCell><mxCell id="4fg3kK6eOyFRR7SpZR4q-29" value="&lt;span style=&quot;font-family:'Microsoft YaHei'; font-size:8pt; color:#191919;&quot;&gt;Bean的完整的生命周期,Spring的主线&lt;/span&gt;" style="rounded=1;whiteSpace=wrap;html=1;fillColor=#f5f5f5;strokeColor=#666666;gradientColor=#b3b3b3;" parent="1" vertex="1"><mxGeometry x="1680" y="560" width="190" height="40" as="geometry"/></mxCell><mxCell id="4fg3kK6eOyFRR7SpZR4q-30" value="抽象能力" style="rounded=1;whiteSpace=wrap;html=1;fillColor=#f5f5f5;strokeColor=#666666;gradientColor=#b3b3b3;" parent="1" vertex="1"><mxGeometry x="1680" y="635" width="120" height="35" as="geometry"/></mxCell><mxCell id="4fg3kK6eOyFRR7SpZR4q-31" value="ClassPathXmlApplicationContext:&amp;nbsp;&lt;span style=&quot;font-family: Consolas; font-size: 9pt; color: rgb(128, 128, 128); font-style: italic;&quot;&gt;DI: &lt;/span&gt;&lt;span style=&quot;font-size: 9pt; color: rgb(128, 128, 128); font-style: italic; font-family: &amp;quot;Courier New&amp;quot;;&quot;&gt;基于&lt;/span&gt;&lt;span style=&quot;font-family: Consolas; font-size: 9pt; color: rgb(128, 128, 128); font-style: italic;&quot;&gt;XML&lt;/span&gt;&lt;span style=&quot;font-size: 9pt; color: rgb(128, 128, 128); font-style: italic; font-family: &amp;quot;Courier New&amp;quot;;&quot;&gt;的依赖注入&lt;/span&gt;" style="rounded=1;whiteSpace=wrap;html=1;fillColor=#f5f5f5;strokeColor=#666666;gradientColor=#b3b3b3;" parent="1" vertex="1"><mxGeometry x="1680" y="60" width="324" height="40" as="geometry"/></mxCell><mxCell id="4fg3kK6eOyFRR7SpZR4q-32" value="ClassPathResource" style="swimlane;fontStyle=0;childLayout=stackLayout;horizontal=1;startSize=26;fillColor=#f5f5f5;horizontalStack=0;resizeParent=1;resizeParentMax=0;resizeLast=0;collapsible=1;marginBottom=0;strokeColor=#666666;gradientColor=#b3b3b3;" parent="1" vertex="1"><mxGeometry x="920" y="483" width="170" height="104" as="geometry"><mxRectangle x="950" y="520" width="150" height="30" as="alternateBounds"/></mxGeometry></mxCell><mxCell id="4fg3kK6eOyFRR7SpZR4q-33" value="+ path: String" style="text;strokeColor=#666666;fillColor=#f5f5f5;align=left;verticalAlign=top;spacingLeft=4;spacingRight=4;overflow=hidden;rotatable=0;points=[[0,0.5],[1,0.5]];portConstraint=eastwest;gradientColor=#b3b3b3;" parent="4fg3kK6eOyFRR7SpZR4q-32" vertex="1"><mxGeometry y="26" width="170" height="26" as="geometry"/></mxCell><mxCell id="4fg3kK6eOyFRR7SpZR4q-34" value="+ classLoader: ClassLoader" style="text;strokeColor=#666666;fillColor=#f5f5f5;align=left;verticalAlign=top;spacingLeft=4;spacingRight=4;overflow=hidden;rotatable=0;points=[[0,0.5],[1,0.5]];portConstraint=eastwest;gradientColor=#b3b3b3;" parent="4fg3kK6eOyFRR7SpZR4q-32" vertex="1"><mxGeometry y="52" width="170" height="26" as="geometry"/></mxCell><mxCell id="4fg3kK6eOyFRR7SpZR4q-35" value="+ clazz: Class" style="text;strokeColor=#666666;fillColor=#f5f5f5;align=left;verticalAlign=top;spacingLeft=4;spacingRight=4;overflow=hidden;rotatable=0;points=[[0,0.5],[1,0.5]];portConstraint=eastwest;gradientColor=#b3b3b3;" parent="4fg3kK6eOyFRR7SpZR4q-32" vertex="1"><mxGeometry y="78" width="170" height="26" as="geometry"/></mxCell><mxCell id="4fg3kK6eOyFRR7SpZR4q-36" value="&lt;b&gt;Class.class&lt;/b&gt;" style="rounded=1;whiteSpace=wrap;html=1;fillColor=#f5f5f5;gradientColor=#b3b3b3;strokeColor=#666666;" parent="1" vertex="1"><mxGeometry x="1030" y="850" width="80" height="40" as="geometry"/></mxCell><mxCell id="4fg3kK6eOyFRR7SpZR4q-37" value="ClassLoader" style="swimlane;fontStyle=1;align=center;verticalAlign=top;childLayout=stackLayout;horizontal=1;startSize=26;horizontalStack=0;resizeParent=1;resizeParentMax=0;resizeLast=0;collapsible=1;marginBottom=0;fillColor=#f5f5f5;gradientColor=#b3b3b3;strokeColor=#666666;" parent="1" vertex="1"><mxGeometry x="254" y="550" width="160" height="190" as="geometry"/></mxCell><mxCell id="4fg3kK6eOyFRR7SpZR4q-38" value="+ field: type" style="text;strokeColor=#666666;fillColor=#f5f5f5;align=left;verticalAlign=top;spacingLeft=4;spacingRight=4;overflow=hidden;rotatable=0;points=[[0,0.5],[1,0.5]];portConstraint=eastwest;gradientColor=#b3b3b3;" parent="4fg3kK6eOyFRR7SpZR4q-37" vertex="1"><mxGeometry y="26" width="160" height="26" as="geometry"/></mxCell><mxCell id="4fg3kK6eOyFRR7SpZR4q-39" value="" style="line;strokeWidth=1;fillColor=none;align=left;verticalAlign=middle;spacingTop=-1;spacingLeft=3;spacingRight=3;rotatable=0;labelPosition=right;points=[];portConstraint=eastwest;strokeColor=inherit;" parent="4fg3kK6eOyFRR7SpZR4q-37" vertex="1"><mxGeometry y="52" width="160" height="8" as="geometry"/></mxCell><mxCell id="4fg3kK6eOyFRR7SpZR4q-40" value="+ defineClass: type" style="text;strokeColor=#666666;fillColor=#f5f5f5;align=left;verticalAlign=top;spacingLeft=4;spacingRight=4;overflow=hidden;rotatable=0;points=[[0,0.5],[1,0.5]];portConstraint=eastwest;gradientColor=#b3b3b3;" parent="4fg3kK6eOyFRR7SpZR4q-37" vertex="1"><mxGeometry y="60" width="160" height="26" as="geometry"/></mxCell><mxCell id="4fg3kK6eOyFRR7SpZR4q-41" value="+ resolveClass: type" style="text;strokeColor=#666666;fillColor=#f5f5f5;align=left;verticalAlign=top;spacingLeft=4;spacingRight=4;overflow=hidden;rotatable=0;points=[[0,0.5],[1,0.5]];portConstraint=eastwest;gradientColor=#b3b3b3;" parent="4fg3kK6eOyFRR7SpZR4q-37" vertex="1"><mxGeometry y="86" width="160" height="26" as="geometry"/></mxCell><mxCell id="4fg3kK6eOyFRR7SpZR4q-42" value="+ findLoadedClass: type" style="text;strokeColor=#666666;fillColor=#f5f5f5;align=left;verticalAlign=top;spacingLeft=4;spacingRight=4;overflow=hidden;rotatable=0;points=[[0,0.5],[1,0.5]];portConstraint=eastwest;gradientColor=#b3b3b3;" parent="4fg3kK6eOyFRR7SpZR4q-37" vertex="1"><mxGeometry y="112" width="160" height="26" as="geometry"/></mxCell><mxCell id="4fg3kK6eOyFRR7SpZR4q-43" value="+ loadClass: type" style="text;strokeColor=#666666;fillColor=#f5f5f5;align=left;verticalAlign=top;spacingLeft=4;spacingRight=4;overflow=hidden;rotatable=0;points=[[0,0.5],[1,0.5]];portConstraint=eastwest;gradientColor=#b3b3b3;" parent="4fg3kK6eOyFRR7SpZR4q-37" vertex="1"><mxGeometry y="138" width="160" height="26" as="geometry"/></mxCell><mxCell id="4fg3kK6eOyFRR7SpZR4q-44" value="+ findClass: type" style="text;strokeColor=#666666;fillColor=#f5f5f5;align=left;verticalAlign=top;spacingLeft=4;spacingRight=4;overflow=hidden;rotatable=0;points=[[0,0.5],[1,0.5]];portConstraint=eastwest;gradientColor=#b3b3b3;" parent="4fg3kK6eOyFRR7SpZR4q-37" vertex="1"><mxGeometry y="164" width="160" height="26" as="geometry"/></mxCell><mxCell id="4fg3kK6eOyFRR7SpZR4q-45" value="" style="edgeStyle=orthogonalEdgeStyle;rounded=0;orthogonalLoop=1;jettySize=auto;html=1;" parent="1" source="4fg3kK6eOyFRR7SpZR4q-46" target="4fg3kK6eOyFRR7SpZR4q-53" edge="1"><mxGeometry relative="1" as="geometry"/></mxCell><mxCell id="4fg3kK6eOyFRR7SpZR4q-46" value="InputStream" style="whiteSpace=wrap;html=1;fillColor=#f5f5f5;strokeColor=#666666;rounded=1;gradientColor=#b3b3b3;" parent="1" vertex="1"><mxGeometry x="623.76" y="760" width="92.49" height="30" as="geometry"/></mxCell><mxCell id="4fg3kK6eOyFRR7SpZR4q-47" value="" style="edgeStyle=orthogonalEdgeStyle;rounded=0;orthogonalLoop=1;jettySize=auto;html=1;" parent="1" source="4fg3kK6eOyFRR7SpZR4q-49" target="4fg3kK6eOyFRR7SpZR4q-51" edge="1"><mxGeometry relative="1" as="geometry"/></mxCell><mxCell id="4fg3kK6eOyFRR7SpZR4q-48" style="edgeStyle=orthogonalEdgeStyle;rounded=0;orthogonalLoop=1;jettySize=auto;html=1;entryX=1;entryY=0.5;entryDx=0;entryDy=0;" parent="1" source="4fg3kK6eOyFRR7SpZR4q-49" target="4fg3kK6eOyFRR7SpZR4q-37" edge="1"><mxGeometry relative="1" as="geometry"/></mxCell><mxCell id="4fg3kK6eOyFRR7SpZR4q-49" value="&lt;span style=&quot;font-weight: 700;&quot;&gt;ClassLoader&lt;/span&gt;" style="rounded=1;whiteSpace=wrap;html=1;fillColor=#f5f5f5;strokeColor=#666666;gradientColor=#b3b3b3;" parent="1" vertex="1"><mxGeometry x="625" y="630" width="90" height="30" as="geometry"/></mxCell><mxCell id="4fg3kK6eOyFRR7SpZR4q-50" value="" style="edgeStyle=orthogonalEdgeStyle;rounded=0;orthogonalLoop=1;jettySize=auto;html=1;" parent="1" source="4fg3kK6eOyFRR7SpZR4q-51" target="4fg3kK6eOyFRR7SpZR4q-46" edge="1"><mxGeometry relative="1" as="geometry"/></mxCell><mxCell id="4fg3kK6eOyFRR7SpZR4q-51" value="URL" style="rounded=1;whiteSpace=wrap;html=1;fillColor=#f5f5f5;strokeColor=#666666;gradientColor=#b3b3b3;" parent="1" vertex="1"><mxGeometry x="626.88" y="695" width="86.25" height="30" as="geometry"/></mxCell><mxCell id="4fg3kK6eOyFRR7SpZR4q-52" value="" style="edgeStyle=orthogonalEdgeStyle;rounded=0;orthogonalLoop=1;jettySize=auto;html=1;" parent="1" source="4fg3kK6eOyFRR7SpZR4q-53" target="4fg3kK6eOyFRR7SpZR4q-55" edge="1"><mxGeometry relative="1" as="geometry"/></mxCell><mxCell id="4fg3kK6eOyFRR7SpZR4q-53" value="File" style="whiteSpace=wrap;html=1;fillColor=#f5f5f5;strokeColor=#666666;rounded=1;gradientColor=#b3b3b3;" parent="1" vertex="1"><mxGeometry x="619.99" y="855" width="100.01" height="30" as="geometry"/></mxCell><mxCell id="4fg3kK6eOyFRR7SpZR4q-54" value="" style="edgeStyle=orthogonalEdgeStyle;rounded=0;orthogonalLoop=1;jettySize=auto;html=1;" parent="1" source="4fg3kK6eOyFRR7SpZR4q-55" target="4fg3kK6eOyFRR7SpZR4q-36" edge="1"><mxGeometry relative="1" as="geometry"/></mxCell><mxCell id="4fg3kK6eOyFRR7SpZR4q-55" value=".class,jar&lt;br&gt;[框架和JDK默认的配置]..." style="whiteSpace=wrap;html=1;fillColor=#f5f5f5;strokeColor=#666666;rounded=1;gradientColor=#b3b3b3;" parent="1" vertex="1"><mxGeometry x="810" y="847.5" width="140" height="45" as="geometry"/></mxCell><mxCell id="4fg3kK6eOyFRR7SpZR4q-56" value="" style="edgeStyle=orthogonalEdgeStyle;rounded=0;orthogonalLoop=1;jettySize=auto;html=1;" parent="1" source="4fg3kK6eOyFRR7SpZR4q-57" target="4fg3kK6eOyFRR7SpZR4q-58" edge="1"><mxGeometry relative="1" as="geometry"/></mxCell><mxCell id="4fg3kK6eOyFRR7SpZR4q-57" value="&lt;font face=&quot;Microsoft YaHei&quot; color=&quot;#191919&quot;&gt;&lt;span style=&quot;font-size: 10.6667px;&quot;&gt;PropertySources&lt;/span&gt;&lt;/font&gt;&lt;br&gt;&lt;font face=&quot;Microsoft YaHei&quot; color=&quot;#191919&quot;&gt;&lt;span style=&quot;font-size: 10.6667px;&quot;&gt;属性文件类,对应的文件内部是单纯的属性名和属性值KV对,如jdbc.properties&lt;/span&gt;&lt;/font&gt;" style="rounded=1;whiteSpace=wrap;html=1;fillColor=#f5f5f5;gradientColor=#b3b3b3;strokeColor=#666666;" parent="1" vertex="1"><mxGeometry x="80" y="190" width="130" height="70" as="geometry"/></mxCell><mxCell id="4fg3kK6eOyFRR7SpZR4q-58" value="&lt;div&gt;&amp;lt;p&amp;gt;&amp;lt;em&amp;gt;Properties&amp;lt;/em&amp;gt; play an important role in almost all applications, and may&lt;/div&gt;&lt;div&gt;originate from a variety of sources: properties files, JVM system properties, system&lt;/div&gt;&lt;div&gt;environment variables, JNDI, servlet context parameters, ad-hoc Properties objects,&lt;/div&gt;&lt;div&gt;Maps, and so on.&lt;/div&gt;" style="whiteSpace=wrap;html=1;rounded=1;fillColor=#f5f5f5;gradientColor=#b3b3b3;strokeColor=#666666;" parent="1" vertex="1"><mxGeometry x="20" y="300" width="250" height="100" as="geometry"/></mxCell><mxCell id="4fg3kK6eOyFRR7SpZR4q-59" value="解析配置文件并得到bean定义,实例化bean对象,再放入spring容器中" style="rounded=1;whiteSpace=wrap;html=1;fillColor=#f5f5f5;strokeColor=#666666;gradientColor=#b3b3b3;" parent="1" vertex="1"><mxGeometry x="1680" y="483" width="190" height="47" as="geometry"/></mxCell><mxCell id="00wqPqCUeFf2qTp-KDv7-1" style="edgeStyle=orthogonalEdgeStyle;rounded=0;orthogonalLoop=1;jettySize=auto;html=1;" parent="1" source="4fg3kK6eOyFRR7SpZR4q-61" edge="1"><mxGeometry relative="1" as="geometry"><mxPoint x="1430" y="230" as="targetPoint"/></mxGeometry></mxCell><mxCell id="4fg3kK6eOyFRR7SpZR4q-61" value="BeanDefinitionRegistryPostProcessor" style="rounded=1;whiteSpace=wrap;html=1;fillColor=#f5f5f5;gradientColor=#b3b3b3;strokeColor=#666666;" parent="1" vertex="1"><mxGeometry x="1329.5" y="285" width="209" height="40" as="geometry"/></mxCell><mxCell id="4fg3kK6eOyFRR7SpZR4q-62" value="" style="edgeStyle=orthogonalEdgeStyle;rounded=0;orthogonalLoop=1;jettySize=auto;html=1;startArrow=none;" parent="1" source="4fg3kK6eOyFRR7SpZR4q-66" target="4fg3kK6eOyFRR7SpZR4q-11" edge="1"><mxGeometry relative="1" as="geometry"/></mxCell><mxCell id="4fg3kK6eOyFRR7SpZR4q-63" value="&lt;div&gt;ResourcePatternResolver&lt;/div&gt;&lt;div&gt;将一个位置解析成资源对象&lt;/div&gt;" style="rounded=1;whiteSpace=wrap;html=1;fillColor=#f5f5f5;gradientColor=#b3b3b3;strokeColor=#666666;" parent="1" vertex="1"><mxGeometry x="910" y="392.5" width="160" height="55" as="geometry"/></mxCell><mxCell id="4fg3kK6eOyFRR7SpZR4q-64" value="" style="edgeStyle=orthogonalEdgeStyle;rounded=0;orthogonalLoop=1;jettySize=auto;html=1;" parent="1" source="4fg3kK6eOyFRR7SpZR4q-65" target="4fg3kK6eOyFRR7SpZR4q-61" edge="1"><mxGeometry relative="1" as="geometry"/></mxCell><mxCell id="4fg3kK6eOyFRR7SpZR4q-65" value="ConfigurationClassPostProcessor" style="rounded=1;whiteSpace=wrap;html=1;fillColor=#f5f5f5;strokeColor=#666666;gradientColor=#b3b3b3;" parent="1" vertex="1"><mxGeometry x="1339" y="402" width="190" height="40" as="geometry"/></mxCell><mxCell id="4fg3kK6eOyFRR7SpZR4q-66" value="实现" style="text;html=1;align=center;verticalAlign=middle;resizable=0;points=[];autosize=1;strokeColor=none;fillColor=none;" parent="1" vertex="1"><mxGeometry x="810" y="405" width="50" height="30" as="geometry"/></mxCell><mxCell id="4fg3kK6eOyFRR7SpZR4q-67" value="" style="edgeStyle=orthogonalEdgeStyle;rounded=0;orthogonalLoop=1;jettySize=auto;html=1;endArrow=none;" parent="1" source="4fg3kK6eOyFRR7SpZR4q-63" target="4fg3kK6eOyFRR7SpZR4q-66" edge="1"><mxGeometry relative="1" as="geometry"><mxPoint x="910" y="420" as="sourcePoint"/><mxPoint x="730" y="420" as="targetPoint"/></mxGeometry></mxCell></root></mxGraphModel></diagram><diagram id="mb0peR2Z4DBDtRt0fUyJ" name="springmvc"><mxGraphModel dx="629" dy="382" grid="1" gridSize="10" guides="1" tooltips="1" connect="1" arrows="1" fold="1" page="1" pageScale="1" pageWidth="827" pageHeight="1169" math="0" shadow="0"><root><mxCell id="0"/><mxCell id="1" parent="0"/><mxCell id="drTj7eupuTeXGMV9_xrB-1" value="Springmvc : 特指controller,也就是servlet,所以要好好看看Servlet规范" style="rounded=1;whiteSpace=wrap;html=1;fillColor=#f8cecc;strokeColor=#b85450;" parent="1" vertex="1"><mxGeometry width="150" height="60" as="geometry"/></mxCell><mxCell id="drTj7eupuTeXGMV9_xrB-2" value="&lt;pre style=&quot;background-color: rgb(199, 237, 204); font-family: Consolas; font-size: 9pt;&quot;&gt;ServletContextListener:监听servletContext容器&lt;/pre&gt;&lt;pre style=&quot;background-color: rgb(199, 237, 204); font-family: Consolas; font-size: 9pt;&quot;&gt;的初始化,销毁事件,并做出相应动作&lt;/pre&gt;" style="rounded=1;whiteSpace=wrap;html=1;" parent="1" vertex="1"><mxGeometry x="80" y="140" width="310" height="60" as="geometry"/></mxCell><mxCell id="drTj7eupuTeXGMV9_xrB-3" value="&lt;pre style=&quot;background-color: rgb(199, 237, 204); font-family: Consolas; font-size: 9pt;&quot;&gt;ServletContextEvent: 指发生&lt;/pre&gt;&lt;pre style=&quot;background-color: rgb(199, 237, 204); font-family: Consolas; font-size: 9pt;&quot;&gt;在ServletContext上的事件&lt;/pre&gt;" style="rounded=1;whiteSpace=wrap;html=1;" parent="1" vertex="1"><mxGeometry x="80" y="220" width="190" height="60" as="geometry"/></mxCell><mxCell id="drTj7eupuTeXGMV9_xrB-4" value="&lt;pre style=&quot;background-color: rgb(199, 237, 204); font-family: Consolas; font-size: 9pt;&quot;&gt;ServletContext: Servlet容器(上下文)[Tomcat]&lt;/pre&gt;" style="rounded=1;whiteSpace=wrap;html=1;" parent="1" vertex="1"><mxGeometry x="80" y="80" width="290" height="40" as="geometry"/></mxCell><mxCell id="drTj7eupuTeXGMV9_xrB-5" value="&lt;pre style=&quot;background-color:#c7edcc;color:#000000;font-family:'Consolas';font-size:9.0pt;&quot;&gt;&lt;span style=&quot;color:#808080;font-style:italic;&quot;&gt;ContextLoaderListener: 针对&lt;/span&gt;&lt;/pre&gt;&lt;pre style=&quot;background-color:#c7edcc;color:#000000;font-family:'Consolas';font-size:9.0pt;&quot;&gt;Context初始化的监听器&lt;/pre&gt;" style="rounded=1;whiteSpace=wrap;html=1;" parent="1" vertex="1"><mxGeometry x="80" y="470" width="190" height="60" as="geometry"/></mxCell><mxCell id="drTj7eupuTeXGMV9_xrB-6" value="&lt;pre style=&quot;background-color: rgb(199, 237, 204); font-family: Consolas; font-size: 9pt;&quot;&gt;ContextLoader: Context初始化类&lt;/pre&gt;" style="rounded=1;whiteSpace=wrap;html=1;" parent="1" vertex="1"><mxGeometry x="75" y="360" width="200" height="40" as="geometry"/></mxCell><mxCell id="drTj7eupuTeXGMV9_xrB-7" value="&lt;pre style=&quot;background-color: rgb(199, 237, 204); font-family: Consolas; font-size: 9pt;&quot;&gt;ConfigurableApplicationContext: 可配置应用上下文,&lt;/pre&gt;&lt;pre style=&quot;background-color: rgb(199, 237, 204); font-family: Consolas; font-size: 9pt;&quot;&gt;表示可以从配置文件中获取配置信息&lt;/pre&gt;" style="rounded=1;whiteSpace=wrap;html=1;" parent="1" vertex="1"><mxGeometry x="400" y="360" width="320" height="60" as="geometry"/></mxCell><mxCell id="drTj7eupuTeXGMV9_xrB-8" value="&lt;pre style=&quot;background-color: rgb(199, 237, 204); font-family: Consolas; font-size: 9pt;&quot;&gt;ConfigurableWebEnvironment: 可配置的web环境&lt;/pre&gt;" style="rounded=1;whiteSpace=wrap;html=1;" parent="1" vertex="1"><mxGeometry x="400" y="480" width="290" height="40" as="geometry"/></mxCell><mxCell id="drTj7eupuTeXGMV9_xrB-9" value="Context关闭:&amp;nbsp; 设置flag或status, 销毁bean,本质就是Context初始化的逆向操作" style="rounded=1;whiteSpace=wrap;html=1;fillColor=#dae8fc;strokeColor=#6c8ebf;" parent="1" vertex="1"><mxGeometry x="650" width="150" height="60" as="geometry"/></mxCell><mxCell id="drTj7eupuTeXGMV9_xrB-10" style="edgeStyle=orthogonalEdgeStyle;rounded=0;orthogonalLoop=1;jettySize=auto;html=1;entryX=0;entryY=0.5;entryDx=0;entryDy=0;" parent="1" source="drTj7eupuTeXGMV9_xrB-12" target="drTj7eupuTeXGMV9_xrB-23" edge="1"><mxGeometry relative="1" as="geometry"/></mxCell><mxCell id="drTj7eupuTeXGMV9_xrB-11" style="edgeStyle=orthogonalEdgeStyle;rounded=0;orthogonalLoop=1;jettySize=auto;html=1;entryX=0;entryY=0.5;entryDx=0;entryDy=0;" parent="1" source="drTj7eupuTeXGMV9_xrB-12" target="drTj7eupuTeXGMV9_xrB-22" edge="1"><mxGeometry relative="1" as="geometry"/></mxCell><mxCell id="drTj7eupuTeXGMV9_xrB-12" value="&lt;pre style=&quot;background-color: rgb(199, 237, 204); font-family: Consolas; font-size: 9pt;&quot;&gt;HandlerMapping: define a mapping between requests&lt;/pre&gt;&lt;pre style=&quot;background-color: rgb(199, 237, 204); font-family: Consolas; font-size: 9pt;&quot;&gt; and handler objects[Controller]&lt;/pre&gt;" style="rounded=1;whiteSpace=wrap;html=1;fillColor=#dae8fc;strokeColor=#6c8ebf;" parent="1" vertex="1"><mxGeometry x="80" y="610" width="350" height="50" as="geometry"/></mxCell><mxCell id="drTj7eupuTeXGMV9_xrB-13" value="&lt;pre style=&quot;background-color: rgb(199, 237, 204); font-family: Consolas; font-size: 9pt;&quot;&gt;HandlerMethodReturnValueHandler:处理器 - 方法返回值 - 处理器(解析处理器方法返回值)&lt;/pre&gt;" style="rounded=1;whiteSpace=wrap;html=1;fillColor=#f8cecc;strokeColor=#b85450;" parent="1" vertex="1"><mxGeometry x="80" y="1320" width="530" height="50" as="geometry"/></mxCell><mxCell id="drTj7eupuTeXGMV9_xrB-14" value="&lt;pre style=&quot;background-color: rgb(199, 237, 204); font-family: Consolas; font-size: 9pt;&quot;&gt;HandlerMethodArgumentResolver:处理器 - 方法参数 - 处理器(解析处理器方法的参数)&lt;/pre&gt;" style="rounded=1;whiteSpace=wrap;html=1;fillColor=#f8cecc;strokeColor=#b85450;" parent="1" vertex="1"><mxGeometry x="80" y="1230" width="510" height="50" as="geometry"/></mxCell><mxCell id="drTj7eupuTeXGMV9_xrB-15" style="edgeStyle=orthogonalEdgeStyle;rounded=0;orthogonalLoop=1;jettySize=auto;html=1;entryX=0;entryY=0.75;entryDx=0;entryDy=0;" parent="1" source="drTj7eupuTeXGMV9_xrB-18" target="drTj7eupuTeXGMV9_xrB-28" edge="1"><mxGeometry relative="1" as="geometry"/></mxCell><mxCell id="drTj7eupuTeXGMV9_xrB-16" style="edgeStyle=orthogonalEdgeStyle;rounded=0;orthogonalLoop=1;jettySize=auto;html=1;entryX=0;entryY=0.75;entryDx=0;entryDy=0;" parent="1" source="drTj7eupuTeXGMV9_xrB-18" target="drTj7eupuTeXGMV9_xrB-29" edge="1"><mxGeometry relative="1" as="geometry"/></mxCell><mxCell id="drTj7eupuTeXGMV9_xrB-17" style="edgeStyle=orthogonalEdgeStyle;rounded=0;orthogonalLoop=1;jettySize=auto;html=1;entryX=0;entryY=0.5;entryDx=0;entryDy=0;" parent="1" source="drTj7eupuTeXGMV9_xrB-18" target="drTj7eupuTeXGMV9_xrB-27" edge="1"><mxGeometry relative="1" as="geometry"/></mxCell><mxCell id="drTj7eupuTeXGMV9_xrB-18" value="&lt;pre style=&quot;background-color: rgb(199, 237, 204); font-family: Consolas; font-size: 9pt;&quot;&gt;HandlerInterceptor: 处理器拦截器&lt;/pre&gt;" style="rounded=1;whiteSpace=wrap;html=1;fillColor=#dae8fc;strokeColor=#6c8ebf;" parent="1" vertex="1"><mxGeometry x="75" y="980" width="220" height="40" as="geometry"/></mxCell><mxCell id="drTj7eupuTeXGMV9_xrB-19" value="" style="edgeStyle=orthogonalEdgeStyle;rounded=0;orthogonalLoop=1;jettySize=auto;html=1;" parent="1" source="drTj7eupuTeXGMV9_xrB-20" target="drTj7eupuTeXGMV9_xrB-32" edge="1"><mxGeometry relative="1" as="geometry"/></mxCell><mxCell id="drTj7eupuTeXGMV9_xrB-20" value="&lt;pre style=&quot;background-color: rgb(199, 237, 204); font-family: Consolas; font-size: 9pt;&quot;&gt;HandlerAdapter: 处理器适配器(The {@code DispatcherServlet} accesses&lt;/pre&gt;&lt;pre style=&quot;background-color: rgb(199, 237, 204); font-family: Consolas; font-size: 9pt;&quot;&gt; all installed handlers through this interface(包含处理器或者本身就是处理器)&lt;/pre&gt;" style="rounded=1;whiteSpace=wrap;html=1;" parent="1" vertex="1"><mxGeometry x="80" y="752.5" width="500" height="50" as="geometry"/></mxCell><mxCell id="drTj7eupuTeXGMV9_xrB-21" value="&lt;pre style=&quot;background-color: rgb(199, 237, 204); font-family: Consolas; font-size: 9pt;&quot;&gt;HandlerExecutionChain: 处理器执行链,包含a handler and any interceptors&lt;/pre&gt;" style="rounded=1;whiteSpace=wrap;html=1;" parent="1" vertex="1"><mxGeometry x="80" y="1120" width="460" height="40" as="geometry"/></mxCell><mxCell id="drTj7eupuTeXGMV9_xrB-22" value="&lt;pre style=&quot;background-color: rgb(199, 237, 204); font-family: Consolas; font-size: 9pt;&quot;&gt;&lt;span style=&quot;color:#808080;font-style:italic;&quot;&gt;BeanNameUrlHandlerMapping&lt;/span&gt;&lt;/pre&gt;" style="whiteSpace=wrap;html=1;fillColor=#dae8fc;strokeColor=#6c8ebf;rounded=1;" parent="1" vertex="1"><mxGeometry x="500" y="569.5" width="190" height="30" as="geometry"/></mxCell><mxCell id="drTj7eupuTeXGMV9_xrB-23" value="&lt;pre style=&quot;background-color: rgb(199, 237, 204); font-family: Consolas; font-size: 9pt;&quot;&gt;&lt;span style=&quot;color:#808080;font-style:italic;&quot;&gt;DefaultAnnotationHandlerMapping&lt;/span&gt;&lt;/pre&gt;" style="whiteSpace=wrap;html=1;fillColor=#dae8fc;strokeColor=#6c8ebf;rounded=1;" parent="1" vertex="1"><mxGeometry x="500" y="650" width="210" height="30" as="geometry"/></mxCell><mxCell id="drTj7eupuTeXGMV9_xrB-24" value="&lt;pre style=&quot;background-color: rgb(199, 237, 204); font-family: Consolas; font-size: 9pt;&quot;&gt;HttpServletRequest&lt;/pre&gt;" style="rounded=1;whiteSpace=wrap;html=1;" parent="1" vertex="1"><mxGeometry x="80" y="1620" width="135" height="40" as="geometry"/></mxCell><mxCell id="drTj7eupuTeXGMV9_xrB-25" value="&lt;pre style=&quot;background-color: rgb(199, 237, 204); font-family: Consolas; font-size: 9pt;&quot;&gt;HttpServletResponse&lt;/pre&gt;" style="rounded=1;whiteSpace=wrap;html=1;" parent="1" vertex="1"><mxGeometry x="80" y="1680" width="135" height="40" as="geometry"/></mxCell><mxCell id="drTj7eupuTeXGMV9_xrB-26" value="&lt;pre style=&quot;background-color: rgb(199, 237, 204); font-family: Consolas; font-size: 9pt;&quot;&gt;&lt;span style=&quot;color:#808080;font-style:italic;&quot;&gt;AsyncHandlerInterceptor&lt;/span&gt;&lt;/pre&gt;" style="rounded=1;whiteSpace=wrap;html=1;fillColor=#dae8fc;strokeColor=#6c8ebf;" parent="1" vertex="1"><mxGeometry x="82.5" y="1050" width="185" height="40" as="geometry"/></mxCell><mxCell id="drTj7eupuTeXGMV9_xrB-27" value="&lt;pre style=&quot;background-color: rgb(199, 237, 204); font-family: Consolas; font-size: 9pt;&quot;&gt;&lt;span style=&quot;color:#808080;font-style:italic;&quot;&gt;UserRoleAuthorizationInterceptor&lt;/span&gt;&lt;/pre&gt;" style="whiteSpace=wrap;html=1;rounded=1;fillColor=#dae8fc;strokeColor=#6c8ebf;" parent="1" vertex="1"><mxGeometry x="437" y="1030" width="225" height="40" as="geometry"/></mxCell><mxCell id="drTj7eupuTeXGMV9_xrB-28" value="&lt;pre style=&quot;background-color: rgb(199, 237, 204); font-family: Consolas; font-size: 9pt;&quot;&gt;&lt;span style=&quot;color:#808080;font-style:italic;&quot;&gt;LocaleChangeInterceptor&lt;/span&gt;&lt;/pre&gt;" style="whiteSpace=wrap;html=1;rounded=1;fillColor=#dae8fc;strokeColor=#6c8ebf;" parent="1" vertex="1"><mxGeometry x="437" y="910" width="180" height="40" as="geometry"/></mxCell><mxCell id="drTj7eupuTeXGMV9_xrB-29" value="&lt;pre style=&quot;background-color: rgb(199, 237, 204); font-family: Consolas; font-size: 9pt;&quot;&gt;&lt;span style=&quot;color:#808080;font-style:italic;&quot;&gt;ThemeChangeInterceptor&lt;/span&gt;&lt;/pre&gt;" style="rounded=1;whiteSpace=wrap;html=1;fillColor=#dae8fc;strokeColor=#6c8ebf;" parent="1" vertex="1"><mxGeometry x="437" y="960" width="166" height="40" as="geometry"/></mxCell><mxCell id="drTj7eupuTeXGMV9_xrB-30" value="&lt;pre style=&quot;background-color: rgb(199, 237, 204); font-family: Consolas; font-size: 9pt;&quot;&gt;HandlerExceptionResolver: 处理器异常处理器&lt;/pre&gt;" style="rounded=1;whiteSpace=wrap;html=1;fillColor=#f8cecc;strokeColor=#b85450;" parent="1" vertex="1"><mxGeometry x="80" y="1430" width="285" height="40" as="geometry"/></mxCell><mxCell id="drTj7eupuTeXGMV9_xrB-31" value="&lt;pre style=&quot;background-color: rgb(199, 237, 204); font-family: Consolas; font-size: 9pt;&quot;&gt;ViewResolver: 视图解析器&lt;/pre&gt;" style="rounded=1;whiteSpace=wrap;html=1;" parent="1" vertex="1"><mxGeometry x="75" y="1530" width="175" height="40" as="geometry"/></mxCell><mxCell id="drTj7eupuTeXGMV9_xrB-32" value="&lt;pre style=&quot;background-color: rgb(199, 237, 204); font-family: Consolas; font-size: 9pt;&quot;&gt;RequestMappingHandlerAdapter&lt;/pre&gt;" style="whiteSpace=wrap;html=1;rounded=1;fillColor=#f8cecc;strokeColor=#b85450;" parent="1" vertex="1"><mxGeometry x="630" y="752.5" width="190" height="45" as="geometry"/></mxCell><mxCell id="drTj7eupuTeXGMV9_xrB-33" value="&lt;pre style=&quot;background-color: rgb(199, 237, 204); font-family: Consolas; font-size: 9pt;&quot;&gt;DispatcherServlet: 调度Servlet&lt;/pre&gt;" style="rounded=1;whiteSpace=wrap;html=1;fillColor=#f8cecc;strokeColor=#b85450;" parent="1" vertex="1"><mxGeometry x="80" y="830" width="215" height="40" as="geometry"/></mxCell></root></mxGraphModel></diagram><diagram id="fixRy8ND6Q9eOSNdOA7o" name="mybatis"><mxGraphModel dx="1456" dy="-787" grid="1" gridSize="10" guides="1" tooltips="1" connect="1" arrows="1" fold="1" page="1" pageScale="1" pageWidth="827" pageHeight="1169" math="0" shadow="0"><root><mxCell id="0"/><mxCell id="1" parent="0"/><mxCell id="Wk-MBeY3T78rKVVH5AQa-1" value="" style="edgeStyle=orthogonalEdgeStyle;rounded=0;orthogonalLoop=1;jettySize=auto;html=1;" parent="1" source="Wk-MBeY3T78rKVVH5AQa-2" target="Wk-MBeY3T78rKVVH5AQa-14" edge="1"><mxGeometry relative="1" as="geometry"/></mxCell><mxCell id="Wk-MBeY3T78rKVVH5AQa-2" value="SqlSessionFactory" style="rounded=1;whiteSpace=wrap;html=1;fillColor=#dae8fc;strokeColor=#6c8ebf;" parent="1" vertex="1"><mxGeometry x="117.5" y="1450" width="160" height="50" as="geometry"/></mxCell><mxCell id="Wk-MBeY3T78rKVVH5AQa-3" style="edgeStyle=orthogonalEdgeStyle;rounded=0;orthogonalLoop=1;jettySize=auto;html=1;entryX=0.5;entryY=0;entryDx=0;entryDy=0;" parent="1" source="Wk-MBeY3T78rKVVH5AQa-4" target="Wk-MBeY3T78rKVVH5AQa-2" edge="1"><mxGeometry relative="1" as="geometry"/></mxCell><mxCell id="Wk-MBeY3T78rKVVH5AQa-4" value="sqlSessionFactoryBean" style="rounded=1;whiteSpace=wrap;html=1;fillColor=#f8cecc;strokeColor=#b85450;" parent="1" vertex="1"><mxGeometry x="127.5" y="1330" width="140" height="40" as="geometry"/></mxCell><mxCell id="Wk-MBeY3T78rKVVH5AQa-5" value="" style="edgeStyle=orthogonalEdgeStyle;rounded=0;orthogonalLoop=1;jettySize=auto;html=1;" parent="1" source="Wk-MBeY3T78rKVVH5AQa-6" target="Wk-MBeY3T78rKVVH5AQa-8" edge="1"><mxGeometry relative="1" as="geometry"/></mxCell><mxCell id="Wk-MBeY3T78rKVVH5AQa-6" value="&lt;span style=&quot;color: rgb(128, 128, 128); font-style: italic; background-color: rgb(199, 237, 204); font-family: Consolas; font-size: 9pt;&quot;&gt;SpringManagedTransaction&lt;/span&gt;" style="rounded=1;whiteSpace=wrap;html=1;fillColor=#dae8fc;strokeColor=#6c8ebf;" parent="1" vertex="1"><mxGeometry x="-185" y="1460" width="180" height="50" as="geometry"/></mxCell><mxCell id="Wk-MBeY3T78rKVVH5AQa-7" value="" style="edgeStyle=orthogonalEdgeStyle;rounded=0;orthogonalLoop=1;jettySize=auto;html=1;" parent="1" source="Wk-MBeY3T78rKVVH5AQa-8" target="Wk-MBeY3T78rKVVH5AQa-16" edge="1"><mxGeometry relative="1" as="geometry"/></mxCell><mxCell id="Wk-MBeY3T78rKVVH5AQa-8" value="DataSource" style="rounded=1;whiteSpace=wrap;html=1;" parent="1" vertex="1"><mxGeometry x="-140" y="1580" width="90" height="50" as="geometry"/></mxCell><mxCell id="Wk-MBeY3T78rKVVH5AQa-9" value="" style="edgeStyle=orthogonalEdgeStyle;rounded=0;orthogonalLoop=1;jettySize=auto;html=1;" parent="1" source="Wk-MBeY3T78rKVVH5AQa-10" target="Wk-MBeY3T78rKVVH5AQa-4" edge="1"><mxGeometry relative="1" as="geometry"/></mxCell><mxCell id="Wk-MBeY3T78rKVVH5AQa-10" value="&lt;pre style=&quot;&quot;&gt;&lt;div style=&quot;text-align: start;&quot;&gt;&lt;font face=&quot;Source Code Pro, DejaVu Sans Mono, Ubuntu Mono, Anonymous Pro, Droid Sans Mono, Menlo, Monaco, Consolas, Inconsolata, Courier, monospace, PingFang SC, Microsoft YaHei, sans-serif&quot; color=&quot;#c7254e&quot;&gt;&lt;span style=&quot;font-size: 14px; font-variant-ligatures: no-common-ligatures; background-color: rgb(249, 242, 244);&quot;&gt;FactoryBean是Spring提供的一个可以由用户自定义&lt;/span&gt;&lt;/font&gt;&lt;/div&gt;&lt;div style=&quot;text-align: start;&quot;&gt;&lt;font face=&quot;Source Code Pro, DejaVu Sans Mono, Ubuntu Mono, Anonymous Pro, Droid Sans Mono, Menlo, Monaco, Consolas, Inconsolata, Courier, monospace, PingFang SC, Microsoft YaHei, sans-serif&quot; color=&quot;#c7254e&quot;&gt;&lt;span style=&quot;font-size: 14px; font-variant-ligatures: no-common-ligatures; background-color: rgb(249, 242, 244);&quot;&gt;的Bean实例工厂接口，FactoryBean的对象本身由Spring&lt;/span&gt;&lt;/font&gt;&lt;/div&gt;&lt;div style=&quot;text-align: start;&quot;&gt;&lt;font face=&quot;Source Code Pro, DejaVu Sans Mono, Ubuntu Mono, Anonymous Pro, Droid Sans Mono, Menlo, Monaco, Consolas, Inconsolata, Courier, monospace, PingFang SC, Microsoft YaHei, sans-serif&quot; color=&quot;#c7254e&quot;&gt;&lt;span style=&quot;font-size: 14px; font-variant-ligatures: no-common-ligatures; background-color: rgb(249, 242, 244);&quot;&gt;容器管理，但FactoryBean仅作为对象工厂暴露，&lt;/span&gt;&lt;/font&gt;&lt;/div&gt;&lt;div style=&quot;text-align: start;&quot;&gt;&lt;font face=&quot;Source Code Pro, DejaVu Sans Mono, Ubuntu Mono, Anonymous Pro, Droid Sans Mono, Menlo, Monaco, Consolas, Inconsolata, Courier, monospace, PingFang SC, Microsoft YaHei, sans-serif&quot; color=&quot;#c7254e&quot;&gt;&lt;span style=&quot;font-size: 14px; font-variant-ligatures: no-common-ligatures; background-color: rgb(249, 242, 244);&quot;&gt;其生产出的Bean的过程由用户控制。&lt;/span&gt;&lt;/font&gt;&lt;/div&gt;&lt;/pre&gt;" style="rounded=1;whiteSpace=wrap;html=1;" parent="1" vertex="1"><mxGeometry x="5" y="1190" width="385" height="100" as="geometry"/></mxCell><mxCell id="Wk-MBeY3T78rKVVH5AQa-11" value="" style="edgeStyle=orthogonalEdgeStyle;rounded=0;orthogonalLoop=1;jettySize=auto;html=1;" parent="1" source="Wk-MBeY3T78rKVVH5AQa-14" target="Wk-MBeY3T78rKVVH5AQa-8" edge="1"><mxGeometry relative="1" as="geometry"/></mxCell><mxCell id="Wk-MBeY3T78rKVVH5AQa-12" value="" style="edgeStyle=orthogonalEdgeStyle;rounded=0;orthogonalLoop=1;jettySize=auto;html=1;startArrow=none;" parent="1" source="Wk-MBeY3T78rKVVH5AQa-30" target="Wk-MBeY3T78rKVVH5AQa-15" edge="1"><mxGeometry relative="1" as="geometry"/></mxCell><mxCell id="Wk-MBeY3T78rKVVH5AQa-13" style="edgeStyle=orthogonalEdgeStyle;rounded=0;orthogonalLoop=1;jettySize=auto;html=1;entryX=0;entryY=0.75;entryDx=0;entryDy=0;" parent="1" source="Wk-MBeY3T78rKVVH5AQa-14" target="Wk-MBeY3T78rKVVH5AQa-23" edge="1"><mxGeometry relative="1" as="geometry"/></mxCell><mxCell id="Wk-MBeY3T78rKVVH5AQa-14" value="SqlSession: :&lt;span style=&quot;border-color: var(--border-color); font-size: 9pt; font-family: Consolas; color: rgb(128, 128, 128); font-style: italic;&quot;&gt;Creates an {&lt;/span&gt;&lt;span style=&quot;border-color: var(--border-color); font-size: 9pt; font-family: Consolas; color: rgb(128, 128, 128); font-weight: bold; font-style: italic;&quot;&gt;@link&amp;nbsp;&lt;/span&gt;&lt;span style=&quot;border-color: var(--border-color); font-size: 9pt; font-family: Consolas; color: rgb(128, 128, 128); font-style: italic;&quot;&gt;SqlSession} out of a connection or a DataSource&lt;/span&gt;" style="rounded=1;whiteSpace=wrap;html=1;fillColor=#dae8fc;strokeColor=#6c8ebf;" parent="1" vertex="1"><mxGeometry x="125" y="1570" width="150" height="70" as="geometry"/></mxCell><mxCell id="Wk-MBeY3T78rKVVH5AQa-15" value="&lt;pre style=&quot;background-color: rgb(199, 237, 204); font-family: Consolas; font-size: 9pt;&quot;&gt;Executor&lt;/pre&gt;" style="rounded=1;whiteSpace=wrap;html=1;" parent="1" vertex="1"><mxGeometry x="155" y="1714" width="90" height="40" as="geometry"/></mxCell><mxCell id="Wk-MBeY3T78rKVVH5AQa-16" value="&lt;pre style=&quot;background-color: rgb(199, 237, 204); font-family: Consolas; font-size: 9pt;&quot;&gt;Connection&lt;/pre&gt;" style="rounded=1;whiteSpace=wrap;html=1;" parent="1" vertex="1"><mxGeometry x="-310" y="1585" width="120" height="40" as="geometry"/></mxCell><mxCell id="Wk-MBeY3T78rKVVH5AQa-17" value="" style="edgeStyle=orthogonalEdgeStyle;rounded=0;orthogonalLoop=1;jettySize=auto;html=1;" parent="1" source="Wk-MBeY3T78rKVVH5AQa-20" target="Wk-MBeY3T78rKVVH5AQa-8" edge="1"><mxGeometry relative="1" as="geometry"/></mxCell><mxCell id="Wk-MBeY3T78rKVVH5AQa-18" value="" style="edgeStyle=orthogonalEdgeStyle;rounded=0;orthogonalLoop=1;jettySize=auto;html=1;" parent="1" source="Wk-MBeY3T78rKVVH5AQa-20" target="Wk-MBeY3T78rKVVH5AQa-39" edge="1"><mxGeometry relative="1" as="geometry"/></mxCell><mxCell id="Wk-MBeY3T78rKVVH5AQa-19" style="edgeStyle=orthogonalEdgeStyle;rounded=0;orthogonalLoop=1;jettySize=auto;html=1;entryX=0.463;entryY=-0.028;entryDx=0;entryDy=0;entryPerimeter=0;" parent="1" source="Wk-MBeY3T78rKVVH5AQa-20" target="Wk-MBeY3T78rKVVH5AQa-33" edge="1"><mxGeometry relative="1" as="geometry"/></mxCell><mxCell id="Wk-MBeY3T78rKVVH5AQa-20" value="&lt;pre style=&quot;background-color: rgb(199, 237, 204); font-family: Consolas; font-size: 9pt;&quot;&gt;&lt;span style=&quot;font-family: Helvetica; background-color: rgb(251, 251, 251);&quot;&gt;DataSourceTransactionManager&lt;/span&gt;&lt;br&gt;&lt;/pre&gt;" style="rounded=1;whiteSpace=wrap;html=1;" parent="1" vertex="1"><mxGeometry x="-180" y="1704" width="170" height="50" as="geometry"/></mxCell><mxCell id="Wk-MBeY3T78rKVVH5AQa-21" value="创建" style="text;html=1;align=center;verticalAlign=middle;resizable=0;points=[];autosize=1;strokeColor=none;fillColor=none;" parent="1" vertex="1"><mxGeometry x="172.5" y="1390" width="50" height="30" as="geometry"/></mxCell><mxCell id="Wk-MBeY3T78rKVVH5AQa-22" value="创建" style="text;html=1;align=center;verticalAlign=middle;resizable=0;points=[];autosize=1;strokeColor=none;fillColor=none;" parent="1" vertex="1"><mxGeometry x="170" y="1520" width="50" height="30" as="geometry"/></mxCell><mxCell id="Wk-MBeY3T78rKVVH5AQa-23" value="&lt;pre style=&quot;background-color: rgb(199, 237, 204); font-family: Consolas; font-size: 9pt;&quot;&gt;Configuration&lt;/pre&gt;" style="rounded=1;whiteSpace=wrap;html=1;fillColor=#f8cecc;strokeColor=#b85450;" parent="1" vertex="1"><mxGeometry x="540" y="1680" width="120" height="60" as="geometry"/></mxCell><mxCell id="Wk-MBeY3T78rKVVH5AQa-24" value="" style="edgeStyle=orthogonalEdgeStyle;rounded=0;orthogonalLoop=1;jettySize=auto;html=1;" parent="1" source="Wk-MBeY3T78rKVVH5AQa-25" target="Wk-MBeY3T78rKVVH5AQa-27" edge="1"><mxGeometry relative="1" as="geometry"/></mxCell><mxCell id="Wk-MBeY3T78rKVVH5AQa-25" value="&lt;pre style=&quot;background-color: rgb(199, 237, 204); font-family: Consolas; font-size: 9pt;&quot;&gt;MapperFactoryBean&lt;/pre&gt;" style="rounded=1;whiteSpace=wrap;html=1;" parent="1" vertex="1"><mxGeometry x="530" y="1190" width="140" height="60" as="geometry"/></mxCell><mxCell id="Wk-MBeY3T78rKVVH5AQa-26" value="" style="edgeStyle=orthogonalEdgeStyle;rounded=0;orthogonalLoop=1;jettySize=auto;html=1;" parent="1" source="Wk-MBeY3T78rKVVH5AQa-27" target="Wk-MBeY3T78rKVVH5AQa-29" edge="1"><mxGeometry relative="1" as="geometry"/></mxCell><mxCell id="Wk-MBeY3T78rKVVH5AQa-27" value="&lt;pre style=&quot;background-color: rgb(199, 237, 204); font-family: Consolas; font-size: 9pt;&quot;&gt;MapperScannerRegistrar&lt;/pre&gt;" style="rounded=1;whiteSpace=wrap;html=1;" parent="1" vertex="1"><mxGeometry x="520" y="1330" width="160" height="60" as="geometry"/></mxCell><mxCell id="Wk-MBeY3T78rKVVH5AQa-28" value="" style="edgeStyle=orthogonalEdgeStyle;rounded=0;orthogonalLoop=1;jettySize=auto;html=1;" parent="1" source="Wk-MBeY3T78rKVVH5AQa-29" target="Wk-MBeY3T78rKVVH5AQa-23" edge="1"><mxGeometry relative="1" as="geometry"/></mxCell><mxCell id="Wk-MBeY3T78rKVVH5AQa-29" value="&lt;pre style=&quot;background-color: rgb(199, 237, 204); font-family: Consolas; font-size: 9pt;&quot;&gt;MapperScannerConfigurer&lt;/pre&gt;" style="rounded=1;whiteSpace=wrap;html=1;" parent="1" vertex="1"><mxGeometry x="510" y="1510" width="180" height="60" as="geometry"/></mxCell><mxCell id="Wk-MBeY3T78rKVVH5AQa-30" value="包含" style="text;html=1;align=center;verticalAlign=middle;resizable=0;points=[];autosize=1;strokeColor=none;fillColor=none;" parent="1" vertex="1"><mxGeometry x="175" y="1664" width="50" height="30" as="geometry"/></mxCell><mxCell id="Wk-MBeY3T78rKVVH5AQa-31" value="" style="edgeStyle=orthogonalEdgeStyle;rounded=0;orthogonalLoop=1;jettySize=auto;html=1;endArrow=none;" parent="1" source="Wk-MBeY3T78rKVVH5AQa-14" target="Wk-MBeY3T78rKVVH5AQa-30" edge="1"><mxGeometry relative="1" as="geometry"><mxPoint x="200" y="1640" as="sourcePoint"/><mxPoint x="200" y="1714" as="targetPoint"/></mxGeometry></mxCell><mxCell id="Wk-MBeY3T78rKVVH5AQa-32" value="包含" style="text;html=1;align=center;verticalAlign=middle;resizable=0;points=[];autosize=1;strokeColor=none;fillColor=none;" parent="1" vertex="1"><mxGeometry x="320" y="1674" width="50" height="30" as="geometry"/></mxCell><mxCell id="Wk-MBeY3T78rKVVH5AQa-33" value="&lt;pre style=&quot;background-color: rgb(199, 237, 204); font-family: Consolas; font-size: 9pt;&quot;&gt;TransactionDefinition;&lt;/pre&gt;&lt;pre style=&quot;background-color: rgb(199, 237, 204); font-family: Consolas; font-size: 9pt;&quot;&gt;describing propagation behavior,&lt;/pre&gt;&lt;pre style=&quot;background-color: rgb(199, 237, 204); font-family: Consolas; font-size: 9pt;&quot;&gt;&lt;pre style=&quot;font-family: Consolas; font-size: 9pt;&quot;&gt;&lt;span style=&quot;color:#808080;font-style:italic;&quot;&gt; isolation level, timeout etc&lt;/span&gt;&lt;/pre&gt;&lt;/pre&gt;" style="rounded=1;whiteSpace=wrap;html=1;" parent="1" vertex="1"><mxGeometry x="-627.5" y="1840" width="235" height="80" as="geometry"/></mxCell><mxCell id="Wk-MBeY3T78rKVVH5AQa-34" value="" style="edgeStyle=orthogonalEdgeStyle;rounded=0;orthogonalLoop=1;jettySize=auto;html=1;" parent="1" source="Wk-MBeY3T78rKVVH5AQa-36" target="Wk-MBeY3T78rKVVH5AQa-37" edge="1"><mxGeometry relative="1" as="geometry"/></mxCell><mxCell id="Wk-MBeY3T78rKVVH5AQa-35" style="edgeStyle=orthogonalEdgeStyle;rounded=0;orthogonalLoop=1;jettySize=auto;html=1;entryX=0;entryY=0.5;entryDx=0;entryDy=0;" parent="1" source="Wk-MBeY3T78rKVVH5AQa-36" target="Wk-MBeY3T78rKVVH5AQa-38" edge="1"><mxGeometry relative="1" as="geometry"/></mxCell><mxCell id="Wk-MBeY3T78rKVVH5AQa-36" value="advisor[顾问]" style="rounded=1;whiteSpace=wrap;html=1;fillColor=#dae8fc;strokeColor=#6c8ebf;" parent="1" vertex="1"><mxGeometry x="-770" y="2220" width="90" height="50" as="geometry"/></mxCell><mxCell id="Wk-MBeY3T78rKVVH5AQa-37" value="advice[建议 - what]" style="whiteSpace=wrap;html=1;rounded=1;fillColor=#dae8fc;strokeColor=#6c8ebf;" parent="1" vertex="1"><mxGeometry x="-570" y="2170" width="120" height="60" as="geometry"/></mxCell><mxCell id="Wk-MBeY3T78rKVVH5AQa-38" value="pointcut[切入点 - where]" style="rounded=1;whiteSpace=wrap;html=1;fillColor=#dae8fc;strokeColor=#6c8ebf;" parent="1" vertex="1"><mxGeometry x="-570" y="2280" width="150" height="50" as="geometry"/></mxCell><mxCell id="Wk-MBeY3T78rKVVH5AQa-39" value="&lt;pre style=&quot;background-color:#c7edcc;color:#000000;font-family:'Consolas';font-size:9.0pt;&quot;&gt;TransactionStatus:&lt;br&gt;&lt;pre style=&quot;font-family: Consolas; font-size: 9pt;&quot;&gt;&lt;span style=&quot;color:#808080;font-style:italic;&quot;&gt;transaction status object &lt;/span&gt;&lt;/pre&gt;&lt;pre style=&quot;font-family: Consolas; font-size: 9pt;&quot;&gt;&lt;span style=&quot;color:#808080;font-style:italic;&quot;&gt;representing the new &lt;/span&gt;&lt;/pre&gt;&lt;pre style=&quot;font-family: Consolas; font-size: 9pt;&quot;&gt;&lt;span style=&quot;color:#808080;font-style:italic;&quot;&gt;or current transaction&lt;/span&gt;&lt;/pre&gt;&lt;/pre&gt;" style="rounded=1;whiteSpace=wrap;html=1;" parent="1" vertex="1"><mxGeometry x="-240" y="1840" width="200" height="110" as="geometry"/></mxCell><mxCell id="Wk-MBeY3T78rKVVH5AQa-40" value="&lt;pre style=&quot;background-color: rgb(199, 237, 204); font-family: Consolas; font-size: 9pt;&quot;&gt;TransactionSynchronization:&lt;/pre&gt;&lt;pre style=&quot;background-color: rgb(199, 237, 204); font-family: Consolas; font-size: 9pt;&quot;&gt;定义了事务执行前后的一系列操作&lt;/pre&gt;" style="rounded=1;whiteSpace=wrap;html=1;" parent="1" vertex="1"><mxGeometry x="-240" y="2050" width="200" height="50" as="geometry"/></mxCell><mxCell id="Wk-MBeY3T78rKVVH5AQa-41" value="&lt;pre style=&quot;background-color: rgb(199, 237, 204); font-family: Consolas; font-size: 9pt;&quot;&gt;TransactionSynchronizationManager:&lt;/pre&gt;&lt;pre style=&quot;background-color: rgb(199, 237, 204); font-family: Consolas; font-size: 9pt;&quot;&gt;保存了 数据源-&amp;gt;数据源连接 的映射关系&lt;/pre&gt;" style="rounded=1;whiteSpace=wrap;html=1;" parent="1" vertex="1"><mxGeometry x="-240" y="1990" width="230" height="50" as="geometry"/></mxCell><mxCell id="Wk-MBeY3T78rKVVH5AQa-42" value="mybatis中的Plugin就是一个&lt;br&gt;InvocationHandler[JDK提供]" style="rounded=1;whiteSpace=wrap;html=1;fillColor=#dae8fc;strokeColor=#6c8ebf;" parent="1" vertex="1"><mxGeometry x="120" y="1840" width="170" height="45" as="geometry"/></mxCell></root></mxGraphModel></diagram><diagram id="l4DqrH7wG1bf6Vj5f52H" name="nacos"><mxGraphModel dx="629" dy="382" grid="1" gridSize="10" guides="1" tooltips="1" connect="1" arrows="1" fold="1" page="1" pageScale="1" pageWidth="827" pageHeight="1169" math="0" shadow="0"><root><mxCell id="0"/><mxCell id="1" parent="0"/><mxCell id="DCw2Nhy7FMJN2cf7HML2-45" value="" style="edgeStyle=orthogonalEdgeStyle;rounded=0;orthogonalLoop=1;jettySize=auto;html=1;" parent="1" source="DCw2Nhy7FMJN2cf7HML2-49" edge="1"><mxGeometry relative="1" as="geometry"><mxPoint x="310" y="340" as="targetPoint"/></mxGeometry></mxCell><mxCell id="DCw2Nhy7FMJN2cf7HML2-46" style="edgeStyle=orthogonalEdgeStyle;rounded=0;orthogonalLoop=1;jettySize=auto;html=1;entryX=0;entryY=0.5;entryDx=0;entryDy=0;" parent="1" source="DCw2Nhy7FMJN2cf7HML2-49" target="DCw2Nhy7FMJN2cf7HML2-50" edge="1"><mxGeometry relative="1" as="geometry"/></mxCell><mxCell id="DCw2Nhy7FMJN2cf7HML2-47" style="edgeStyle=orthogonalEdgeStyle;rounded=0;orthogonalLoop=1;jettySize=auto;html=1;entryX=0;entryY=0.5;entryDx=0;entryDy=0;" parent="1" source="DCw2Nhy7FMJN2cf7HML2-49" target="DCw2Nhy7FMJN2cf7HML2-53" edge="1"><mxGeometry relative="1" as="geometry"/></mxCell><mxCell id="DCw2Nhy7FMJN2cf7HML2-48" style="edgeStyle=orthogonalEdgeStyle;rounded=0;orthogonalLoop=1;jettySize=auto;html=1;entryX=0;entryY=0.5;entryDx=0;entryDy=0;" parent="1" source="DCw2Nhy7FMJN2cf7HML2-49" target="DCw2Nhy7FMJN2cf7HML2-59" edge="1"><mxGeometry relative="1" as="geometry"/></mxCell><mxCell id="DCw2Nhy7FMJN2cf7HML2-49" value="NacosConfigService" style="rounded=0;whiteSpace=wrap;html=1;" parent="1" vertex="1"><mxGeometry x="20" y="320" width="120" height="40" as="geometry"/></mxCell><mxCell id="DCw2Nhy7FMJN2cf7HML2-50" value="2. ConfigFilterChainManager[过滤器]&amp;nbsp;" style="rounded=1;whiteSpace=wrap;html=1;" parent="1" vertex="1"><mxGeometry x="230" y="410" width="240" height="40" as="geometry"/></mxCell><mxCell id="DCw2Nhy7FMJN2cf7HML2-51" value="1. initNamespace [命名空间]" style="rounded=1;whiteSpace=wrap;html=1;" parent="1" vertex="1"><mxGeometry x="230" y="320" width="180" height="40" as="geometry"/></mxCell><mxCell id="DCw2Nhy7FMJN2cf7HML2-52" value="" style="edgeStyle=orthogonalEdgeStyle;rounded=0;orthogonalLoop=1;jettySize=auto;html=1;" parent="1" source="DCw2Nhy7FMJN2cf7HML2-53" target="DCw2Nhy7FMJN2cf7HML2-54" edge="1"><mxGeometry relative="1" as="geometry"/></mxCell><mxCell id="DCw2Nhy7FMJN2cf7HML2-53" value="3. 获取nacos-server服务器地址并更新本地地址, 之后发布ServerlistChangeEvent事件,内部通过内存队列" style="rounded=1;whiteSpace=wrap;html=1;" parent="1" vertex="1"><mxGeometry x="230" y="470" width="320" height="60" as="geometry"/></mxCell><mxCell id="DCw2Nhy7FMJN2cf7HML2-54" value="" style="whiteSpace=wrap;html=1;rounded=1;" parent="1" vertex="1"><mxGeometry x="650" y="470" width="120" height="60" as="geometry"/></mxCell><mxCell id="DCw2Nhy7FMJN2cf7HML2-55" value="" style="edgeStyle=orthogonalEdgeStyle;rounded=0;orthogonalLoop=1;jettySize=auto;html=1;" parent="1" source="DCw2Nhy7FMJN2cf7HML2-59" target="DCw2Nhy7FMJN2cf7HML2-61" edge="1"><mxGeometry relative="1" as="geometry"/></mxCell><mxCell id="DCw2Nhy7FMJN2cf7HML2-56" style="edgeStyle=orthogonalEdgeStyle;rounded=0;orthogonalLoop=1;jettySize=auto;html=1;entryX=0;entryY=0.5;entryDx=0;entryDy=0;" parent="1" source="DCw2Nhy7FMJN2cf7HML2-59" target="DCw2Nhy7FMJN2cf7HML2-62" edge="1"><mxGeometry relative="1" as="geometry"/></mxCell><mxCell id="DCw2Nhy7FMJN2cf7HML2-57" style="edgeStyle=orthogonalEdgeStyle;rounded=0;orthogonalLoop=1;jettySize=auto;html=1;entryX=0;entryY=0.5;entryDx=0;entryDy=0;" parent="1" source="DCw2Nhy7FMJN2cf7HML2-59" target="DCw2Nhy7FMJN2cf7HML2-63" edge="1"><mxGeometry relative="1" as="geometry"/></mxCell><mxCell id="DCw2Nhy7FMJN2cf7HML2-58" style="edgeStyle=orthogonalEdgeStyle;rounded=0;orthogonalLoop=1;jettySize=auto;html=1;entryX=0;entryY=0.5;entryDx=0;entryDy=0;" parent="1" source="DCw2Nhy7FMJN2cf7HML2-59" target="DCw2Nhy7FMJN2cf7HML2-64" edge="1"><mxGeometry relative="1" as="geometry"/></mxCell><mxCell id="DCw2Nhy7FMJN2cf7HML2-59" value="ClientWorker[grpc版本]&lt;br&gt;executeConfigListen()" style="rounded=1;whiteSpace=wrap;html=1;" parent="1" vertex="1"><mxGeometry x="230" y="590" width="140" height="60" as="geometry"/></mxCell><mxCell id="DCw2Nhy7FMJN2cf7HML2-60" value="" style="edgeStyle=orthogonalEdgeStyle;rounded=0;orthogonalLoop=1;jettySize=auto;html=1;" parent="1" source="DCw2Nhy7FMJN2cf7HML2-61" target="DCw2Nhy7FMJN2cf7HML2-67" edge="1"><mxGeometry relative="1" as="geometry"/></mxCell><mxCell id="DCw2Nhy7FMJN2cf7HML2-61" value="ConfigTransportClient: 通过grpc与服务端通信,执行配置监听工作" style="whiteSpace=wrap;html=1;rounded=1;" parent="1" vertex="1"><mxGeometry x="424" y="592.5" width="190" height="55" as="geometry"/></mxCell><mxCell id="DCw2Nhy7FMJN2cf7HML2-62" value="先获取changeKey,在去获取已改变的配置内容并更新值内存中的数据" style="rounded=1;whiteSpace=wrap;html=1;" parent="1" vertex="1"><mxGeometry x="424" y="670" width="130" height="60" as="geometry"/></mxCell><mxCell id="DCw2Nhy7FMJN2cf7HML2-63" value="LocalConfigInfoProcessor: 将获取到已修改后的内容保存到快照中" style="rounded=1;whiteSpace=wrap;html=1;" parent="1" vertex="1"><mxGeometry x="423" y="750" width="191" height="50" as="geometry"/></mxCell><mxCell id="DCw2Nhy7FMJN2cf7HML2-64" value="LocalEncryptedDataKeyProcessor" style="rounded=1;whiteSpace=wrap;html=1;" parent="1" vertex="1"><mxGeometry x="424" y="830" width="201" height="40" as="geometry"/></mxCell><mxCell id="DCw2Nhy7FMJN2cf7HML2-65" value="reconnectionSignal:&amp;nbsp; 用于发起异步重连的队列" style="rounded=1;whiteSpace=wrap;html=1;" parent="1" vertex="1"><mxGeometry x="50" y="1090" width="130" height="50" as="geometry"/></mxCell><mxCell id="DCw2Nhy7FMJN2cf7HML2-66" value="eventLinkedBlockingQueue: 异步连接成功/断开连接后在异步发布事件&amp;nbsp;&amp;nbsp;" style="rounded=1;whiteSpace=wrap;html=1;" parent="1" vertex="1"><mxGeometry x="50" y="1010" width="200" height="50" as="geometry"/></mxCell><mxCell id="DCw2Nhy7FMJN2cf7HML2-67" value="RpcClient/GrpcClient" style="whiteSpace=wrap;html=1;rounded=1;fillColor=#f8cecc;strokeColor=#b85450;" parent="1" vertex="1"><mxGeometry x="650" y="600" width="140" height="40" as="geometry"/></mxCell><mxCell id="DCw2Nhy7FMJN2cf7HML2-68" style="edgeStyle=orthogonalEdgeStyle;rounded=0;orthogonalLoop=1;jettySize=auto;html=1;entryX=0.5;entryY=0;entryDx=0;entryDy=0;" parent="1" source="DCw2Nhy7FMJN2cf7HML2-71" target="DCw2Nhy7FMJN2cf7HML2-72" edge="1"><mxGeometry relative="1" as="geometry"/></mxCell><mxCell id="DCw2Nhy7FMJN2cf7HML2-69" style="edgeStyle=orthogonalEdgeStyle;rounded=0;orthogonalLoop=1;jettySize=auto;html=1;entryX=0.5;entryY=0;entryDx=0;entryDy=0;" parent="1" source="DCw2Nhy7FMJN2cf7HML2-71" target="DCw2Nhy7FMJN2cf7HML2-76" edge="1"><mxGeometry relative="1" as="geometry"/></mxCell><mxCell id="DCw2Nhy7FMJN2cf7HML2-70" style="edgeStyle=orthogonalEdgeStyle;rounded=0;orthogonalLoop=1;jettySize=auto;html=1;entryX=0.5;entryY=0;entryDx=0;entryDy=0;" parent="1" source="DCw2Nhy7FMJN2cf7HML2-71" target="DCw2Nhy7FMJN2cf7HML2-77" edge="1"><mxGeometry relative="1" as="geometry"/></mxCell><mxCell id="DCw2Nhy7FMJN2cf7HML2-71" value="&lt;pre style=&quot;background-color:#2b2b2b;color:#a9b7c6;font-family:'JetBrains Mono',monospace;font-size:9.8pt;&quot;&gt;nacos-config&lt;/pre&gt;" style="rounded=1;whiteSpace=wrap;html=1;fillColor=#d5e8d4;strokeColor=#82b366;" parent="1" vertex="1"><mxGeometry x="420" y="1250" width="120" height="30" as="geometry"/></mxCell><mxCell id="DCw2Nhy7FMJN2cf7HML2-72" value="&lt;pre style=&quot;background-color:#2b2b2b;color:#a9b7c6;font-family:'JetBrains Mono',monospace;font-size:9.8pt;&quot;&gt;nacos-api&lt;/pre&gt;" style="rounded=1;whiteSpace=wrap;html=1;" parent="1" vertex="1"><mxGeometry x="310" y="1320" width="80" height="30" as="geometry"/></mxCell><mxCell id="DCw2Nhy7FMJN2cf7HML2-73" style="edgeStyle=orthogonalEdgeStyle;rounded=0;orthogonalLoop=1;jettySize=auto;html=1;entryX=0;entryY=0.5;entryDx=0;entryDy=0;" parent="1" source="DCw2Nhy7FMJN2cf7HML2-76" target="DCw2Nhy7FMJN2cf7HML2-78" edge="1"><mxGeometry relative="1" as="geometry"/></mxCell><mxCell id="DCw2Nhy7FMJN2cf7HML2-74" style="edgeStyle=orthogonalEdgeStyle;rounded=0;orthogonalLoop=1;jettySize=auto;html=1;entryX=0;entryY=0.5;entryDx=0;entryDy=0;" parent="1" source="DCw2Nhy7FMJN2cf7HML2-76" target="DCw2Nhy7FMJN2cf7HML2-79" edge="1"><mxGeometry relative="1" as="geometry"/></mxCell><mxCell id="DCw2Nhy7FMJN2cf7HML2-75" style="edgeStyle=orthogonalEdgeStyle;rounded=0;orthogonalLoop=1;jettySize=auto;html=1;entryX=0;entryY=0.5;entryDx=0;entryDy=0;" parent="1" source="DCw2Nhy7FMJN2cf7HML2-76" target="DCw2Nhy7FMJN2cf7HML2-80" edge="1"><mxGeometry relative="1" as="geometry"/></mxCell><mxCell id="DCw2Nhy7FMJN2cf7HML2-76" value="&lt;pre style=&quot;background-color:#2b2b2b;color:#a9b7c6;font-family:'JetBrains Mono',monospace;font-size:9.8pt;&quot;&gt;nacos-core&lt;/pre&gt;" style="rounded=1;whiteSpace=wrap;html=1;" parent="1" vertex="1"><mxGeometry x="580" y="1320" width="80" height="30" as="geometry"/></mxCell><mxCell id="DCw2Nhy7FMJN2cf7HML2-77" value="&lt;pre style=&quot;background-color:#2b2b2b;color:#a9b7c6;font-family:'JetBrains Mono',monospace;font-size:9.8pt;&quot;&gt;nacos-encryption-plugin&lt;/pre&gt;" style="rounded=1;whiteSpace=wrap;html=1;" parent="1" vertex="1"><mxGeometry x="400" y="1320" width="160" height="30" as="geometry"/></mxCell><mxCell id="DCw2Nhy7FMJN2cf7HML2-78" value="&lt;pre style=&quot;background-color:#2b2b2b;color:#a9b7c6;font-family:'JetBrains Mono',monospace;font-size:9.8pt;&quot;&gt;nacos-common&lt;/pre&gt;" style="rounded=1;whiteSpace=wrap;html=1;" parent="1" vertex="1"><mxGeometry x="715" y="1320" width="90" height="30" as="geometry"/></mxCell><mxCell id="DCw2Nhy7FMJN2cf7HML2-79" value="&lt;pre style=&quot;background-color:#2b2b2b;color:#a9b7c6;font-family:'JetBrains Mono',monospace;font-size:9.8pt;&quot;&gt;nacos-consistency&lt;/pre&gt;" style="rounded=1;whiteSpace=wrap;html=1;" parent="1" vertex="1"><mxGeometry x="715" y="1260" width="110" height="30" as="geometry"/></mxCell><mxCell id="DCw2Nhy7FMJN2cf7HML2-80" value="&lt;pre style=&quot;background-color:#2b2b2b;color:#a9b7c6;font-family:'JetBrains Mono',monospace;font-size:9.8pt;&quot;&gt;nacos-auth&lt;/pre&gt;" style="rounded=1;whiteSpace=wrap;html=1;" parent="1" vertex="1"><mxGeometry x="715" y="1380" width="80" height="30" as="geometry"/></mxCell><mxCell id="DCw2Nhy7FMJN2cf7HML2-81" value="&lt;pre style=&quot;background-color:#2b2b2b;color:#a9b7c6;font-family:'JetBrains Mono',monospace;font-size:9.8pt;&quot;&gt;nacos-cmdb&lt;/pre&gt;" style="rounded=1;whiteSpace=wrap;html=1;" parent="1" vertex="1"><mxGeometry x="430" y="1390" width="100" height="30" as="geometry"/></mxCell><mxCell id="DCw2Nhy7FMJN2cf7HML2-82" style="edgeStyle=orthogonalEdgeStyle;rounded=0;orthogonalLoop=1;jettySize=auto;html=1;entryX=0.5;entryY=1;entryDx=0;entryDy=0;" parent="1" source="DCw2Nhy7FMJN2cf7HML2-85" target="DCw2Nhy7FMJN2cf7HML2-81" edge="1"><mxGeometry relative="1" as="geometry"/></mxCell><mxCell id="DCw2Nhy7FMJN2cf7HML2-83" style="edgeStyle=orthogonalEdgeStyle;rounded=0;orthogonalLoop=1;jettySize=auto;html=1;entryX=0.5;entryY=1;entryDx=0;entryDy=0;" parent="1" source="DCw2Nhy7FMJN2cf7HML2-85" target="DCw2Nhy7FMJN2cf7HML2-76" edge="1"><mxGeometry relative="1" as="geometry"/></mxCell><mxCell id="DCw2Nhy7FMJN2cf7HML2-84" style="edgeStyle=orthogonalEdgeStyle;rounded=0;orthogonalLoop=1;jettySize=auto;html=1;entryX=0.5;entryY=1;entryDx=0;entryDy=0;" parent="1" source="DCw2Nhy7FMJN2cf7HML2-85" target="DCw2Nhy7FMJN2cf7HML2-72" edge="1"><mxGeometry relative="1" as="geometry"/></mxCell><mxCell id="DCw2Nhy7FMJN2cf7HML2-85" value="&lt;pre style=&quot;background-color:#2b2b2b;color:#a9b7c6;font-family:'JetBrains Mono',monospace;font-size:9.8pt;&quot;&gt;nacos-naming&lt;/pre&gt;" style="rounded=1;whiteSpace=wrap;html=1;fillColor=#d5e8d4;strokeColor=#82b366;" parent="1" vertex="1"><mxGeometry x="420" y="1490" width="120" height="30" as="geometry"/></mxCell><mxCell id="DCw2Nhy7FMJN2cf7HML2-86" style="edgeStyle=orthogonalEdgeStyle;rounded=0;orthogonalLoop=1;jettySize=auto;html=1;entryX=0;entryY=0.5;entryDx=0;entryDy=0;" parent="1" source="DCw2Nhy7FMJN2cf7HML2-88" target="DCw2Nhy7FMJN2cf7HML2-85" edge="1"><mxGeometry relative="1" as="geometry"/></mxCell><mxCell id="DCw2Nhy7FMJN2cf7HML2-87" style="edgeStyle=orthogonalEdgeStyle;rounded=0;orthogonalLoop=1;jettySize=auto;html=1;entryX=0.5;entryY=0;entryDx=0;entryDy=0;" parent="1" source="DCw2Nhy7FMJN2cf7HML2-88" target="DCw2Nhy7FMJN2cf7HML2-71" edge="1"><mxGeometry relative="1" as="geometry"/></mxCell><mxCell id="DCw2Nhy7FMJN2cf7HML2-88" value="&lt;pre style=&quot;background-color:#2b2b2b;color:#a9b7c6;font-family:'JetBrains Mono',monospace;font-size:9.8pt;&quot;&gt;nacos-console&lt;/pre&gt;" style="rounded=1;whiteSpace=wrap;html=1;" parent="1" vertex="1"><mxGeometry x="50" y="1360" width="100" height="40" as="geometry"/></mxCell></root></mxGraphModel></diagram></mxfile>